<mxfile host="app.diagrams.net" modified="2023-07-16T14:54:07.090Z" agent="Mozilla/5.0 (Windows NT 10.0; Win64; x64) AppleWebKit/537.36 (KHTML, like Gecko) Chrome/114.0.0.0 Safari/537.36" etag="IzxRtGOCSU1kuAEEZNMX" version="21.6.2" type="device">
  <diagram name="Trang-1" id="q2MtAAJIzC_stVAr-41x">
    <mxGraphModel dx="2049" dy="1137" grid="1" gridSize="10" guides="1" tooltips="1" connect="1" arrows="1" fold="1" page="1" pageScale="1" pageWidth="1654" pageHeight="2336" math="0" shadow="0">
      <root>
        <mxCell id="0" />
        <mxCell id="1" parent="0" />
        <mxCell id="2nLP9KUXU7uZTx3rWCLJ-3" value="&lt;font style=&quot;font-size: 15px;&quot;&gt;Quan Hệ&lt;/font&gt;" style="rhombus;whiteSpace=wrap;html=1;" parent="1" vertex="1">
          <mxGeometry x="1058.08" y="1550" width="80" height="80" as="geometry" />
        </mxCell>
        <mxCell id="2nLP9KUXU7uZTx3rWCLJ-5" value="&lt;font style=&quot;font-size: 15px;&quot;&gt;Quan Hệ&lt;/font&gt;" style="rhombus;whiteSpace=wrap;html=1;" parent="1" vertex="1">
          <mxGeometry x="788.08" y="1185" width="80" height="80" as="geometry" />
        </mxCell>
        <mxCell id="2nLP9KUXU7uZTx3rWCLJ-10" value="&lt;font style=&quot;font-size: 15px;&quot;&gt;Quan Hệ&lt;/font&gt;" style="rhombus;whiteSpace=wrap;html=1;" parent="1" vertex="1">
          <mxGeometry x="538.08" y="1435" width="80" height="80" as="geometry" />
        </mxCell>
        <mxCell id="2nLP9KUXU7uZTx3rWCLJ-14" value="&lt;font style=&quot;font-size: 15px;&quot;&gt;Quan Hệ&lt;/font&gt;" style="rhombus;whiteSpace=wrap;html=1;" parent="1" vertex="1">
          <mxGeometry x="228.07999999999998" y="1195" width="80" height="80" as="geometry" />
        </mxCell>
        <mxCell id="2nLP9KUXU7uZTx3rWCLJ-15" value="&lt;font style=&quot;font-size: 17px;&quot;&gt;Có&lt;/font&gt;" style="rhombus;whiteSpace=wrap;html=1;" parent="1" vertex="1">
          <mxGeometry x="590" y="1340" width="80" height="80" as="geometry" />
        </mxCell>
        <mxCell id="2nLP9KUXU7uZTx3rWCLJ-16" value="&lt;font style=&quot;font-size: 17px;&quot;&gt;Có&lt;/font&gt;" style="rhombus;whiteSpace=wrap;html=1;" parent="1" vertex="1">
          <mxGeometry x="1170" y="1260" width="80" height="80" as="geometry" />
        </mxCell>
        <mxCell id="2nLP9KUXU7uZTx3rWCLJ-19" value="" style="endArrow=none;html=1;rounded=0;entryX=0;entryY=0.5;entryDx=0;entryDy=0;" parent="1" source="2nLP9KUXU7uZTx3rWCLJ-21" target="2nLP9KUXU7uZTx3rWCLJ-10" edge="1">
          <mxGeometry width="50" height="50" relative="1" as="geometry">
            <mxPoint x="508.08000000000004" y="1425" as="sourcePoint" />
            <mxPoint x="578.7906781186548" y="1375" as="targetPoint" />
          </mxGeometry>
        </mxCell>
        <mxCell id="2nLP9KUXU7uZTx3rWCLJ-20" value="" style="endArrow=none;html=1;rounded=0;entryX=0;entryY=0.5;entryDx=0;entryDy=0;exitX=1;exitY=1.033;exitDx=0;exitDy=0;exitPerimeter=0;" parent="1" source="hL4TjKniRrkw36ojrrID-56" target="2nLP9KUXU7uZTx3rWCLJ-21" edge="1">
          <mxGeometry width="50" height="50" relative="1" as="geometry">
            <mxPoint x="498.08" y="1355" as="sourcePoint" />
            <mxPoint x="598.08" y="1375" as="targetPoint" />
          </mxGeometry>
        </mxCell>
        <mxCell id="2nLP9KUXU7uZTx3rWCLJ-21" value="1" style="text;strokeColor=none;fillColor=none;align=left;verticalAlign=middle;spacingLeft=4;spacingRight=4;overflow=hidden;points=[[0,0.5],[1,0.5]];portConstraint=eastwest;rotatable=0;whiteSpace=wrap;html=1;" parent="1" vertex="1">
          <mxGeometry x="468.08" y="1460" width="30" height="30" as="geometry" />
        </mxCell>
        <mxCell id="2nLP9KUXU7uZTx3rWCLJ-22" value="" style="endArrow=none;html=1;rounded=0;exitX=1;exitY=0.5;exitDx=0;exitDy=0;" parent="1" source="2nLP9KUXU7uZTx3rWCLJ-24" edge="1">
          <mxGeometry width="50" height="50" relative="1" as="geometry">
            <mxPoint x="678.08" y="1425" as="sourcePoint" />
            <mxPoint x="748.08" y="1475" as="targetPoint" />
          </mxGeometry>
        </mxCell>
        <mxCell id="2nLP9KUXU7uZTx3rWCLJ-23" value="" style="endArrow=none;html=1;rounded=0;exitX=1;exitY=0.5;exitDx=0;exitDy=0;entryX=0;entryY=0.5;entryDx=0;entryDy=0;" parent="1" source="2nLP9KUXU7uZTx3rWCLJ-10" target="2nLP9KUXU7uZTx3rWCLJ-24" edge="1">
          <mxGeometry width="50" height="50" relative="1" as="geometry">
            <mxPoint x="668.08" y="1375" as="sourcePoint" />
            <mxPoint x="768.08" y="1375" as="targetPoint" />
          </mxGeometry>
        </mxCell>
        <mxCell id="2nLP9KUXU7uZTx3rWCLJ-24" value="n" style="text;html=1;strokeColor=none;fillColor=none;align=center;verticalAlign=middle;whiteSpace=wrap;rounded=0;" parent="1" vertex="1">
          <mxGeometry x="658.08" y="1460" width="20" height="30" as="geometry" />
        </mxCell>
        <mxCell id="2nLP9KUXU7uZTx3rWCLJ-25" value="" style="endArrow=none;html=1;rounded=0;entryX=0;entryY=0.5;entryDx=0;entryDy=0;" parent="1" source="2nLP9KUXU7uZTx3rWCLJ-27" target="2nLP9KUXU7uZTx3rWCLJ-3" edge="1">
          <mxGeometry width="50" height="50" relative="1" as="geometry">
            <mxPoint x="888.08" y="1425" as="sourcePoint" />
            <mxPoint x="958.7906781186548" y="1375" as="targetPoint" />
          </mxGeometry>
        </mxCell>
        <mxCell id="2nLP9KUXU7uZTx3rWCLJ-26" value="" style="endArrow=none;html=1;rounded=0;entryX=0;entryY=0.5;entryDx=0;entryDy=0;" parent="1" target="2nLP9KUXU7uZTx3rWCLJ-27" edge="1">
          <mxGeometry width="50" height="50" relative="1" as="geometry">
            <mxPoint x="928.08" y="1510" as="sourcePoint" />
            <mxPoint x="988.08" y="1375" as="targetPoint" />
          </mxGeometry>
        </mxCell>
        <mxCell id="2nLP9KUXU7uZTx3rWCLJ-27" value="n" style="text;html=1;strokeColor=none;fillColor=none;align=center;verticalAlign=middle;whiteSpace=wrap;rounded=0;" parent="1" vertex="1">
          <mxGeometry x="988.08" y="1550" width="20" height="30" as="geometry" />
        </mxCell>
        <mxCell id="2nLP9KUXU7uZTx3rWCLJ-28" value="" style="endArrow=none;html=1;rounded=0;entryX=0;entryY=0.5;entryDx=0;entryDy=0;" parent="1" source="2nLP9KUXU7uZTx3rWCLJ-30" target="2nLP9KUXU7uZTx3rWCLJ-169" edge="1">
          <mxGeometry width="50" height="50" relative="1" as="geometry">
            <mxPoint x="1068.08" y="1425" as="sourcePoint" />
            <mxPoint x="1288.08" y="1535" as="targetPoint" />
          </mxGeometry>
        </mxCell>
        <mxCell id="2nLP9KUXU7uZTx3rWCLJ-29" value="" style="endArrow=none;html=1;rounded=0;entryX=0;entryY=0.5;entryDx=0;entryDy=0;" parent="1" source="2nLP9KUXU7uZTx3rWCLJ-3" target="2nLP9KUXU7uZTx3rWCLJ-30" edge="1">
          <mxGeometry width="50" height="50" relative="1" as="geometry">
            <mxPoint x="1068.08" y="1375" as="sourcePoint" />
            <mxPoint x="1158.08" y="1375" as="targetPoint" />
          </mxGeometry>
        </mxCell>
        <mxCell id="2nLP9KUXU7uZTx3rWCLJ-30" value="1" style="text;html=1;strokeColor=none;fillColor=none;align=center;verticalAlign=middle;whiteSpace=wrap;rounded=0;" parent="1" vertex="1">
          <mxGeometry x="1198.08" y="1595" width="30" height="30" as="geometry" />
        </mxCell>
        <mxCell id="2nLP9KUXU7uZTx3rWCLJ-31" value="" style="endArrow=none;html=1;rounded=0;" parent="1" source="2nLP9KUXU7uZTx3rWCLJ-32" edge="1">
          <mxGeometry width="50" height="50" relative="1" as="geometry">
            <mxPoint x="828.08" y="1324.2893218813451" as="sourcePoint" />
            <mxPoint x="828.08" y="1274.2893218813451" as="targetPoint" />
          </mxGeometry>
        </mxCell>
        <mxCell id="2nLP9KUXU7uZTx3rWCLJ-33" value="" style="endArrow=none;html=1;rounded=0;" parent="1" target="2nLP9KUXU7uZTx3rWCLJ-32" edge="1">
          <mxGeometry width="50" height="50" relative="1" as="geometry">
            <mxPoint x="828.08" y="1345" as="sourcePoint" />
            <mxPoint x="828.08" y="1274.2893218813451" as="targetPoint" />
          </mxGeometry>
        </mxCell>
        <mxCell id="2nLP9KUXU7uZTx3rWCLJ-32" value="n" style="text;html=1;strokeColor=none;fillColor=none;align=center;verticalAlign=middle;whiteSpace=wrap;rounded=0;" parent="1" vertex="1">
          <mxGeometry x="798.08" y="1295" width="60" height="30" as="geometry" />
        </mxCell>
        <mxCell id="2nLP9KUXU7uZTx3rWCLJ-34" value="" style="endArrow=none;html=1;rounded=0;" parent="1" source="2nLP9KUXU7uZTx3rWCLJ-36" edge="1">
          <mxGeometry width="50" height="50" relative="1" as="geometry">
            <mxPoint x="828.08" y="1164.2893218813451" as="sourcePoint" />
            <mxPoint x="828" y="1080" as="targetPoint" />
          </mxGeometry>
        </mxCell>
        <mxCell id="2nLP9KUXU7uZTx3rWCLJ-35" value="" style="endArrow=none;html=1;rounded=0;" parent="1" source="2nLP9KUXU7uZTx3rWCLJ-5" target="2nLP9KUXU7uZTx3rWCLJ-36" edge="1">
          <mxGeometry width="50" height="50" relative="1" as="geometry">
            <mxPoint x="828.08" y="1185" as="sourcePoint" />
            <mxPoint x="828.08" y="1114.2893218813451" as="targetPoint" />
          </mxGeometry>
        </mxCell>
        <mxCell id="2nLP9KUXU7uZTx3rWCLJ-36" value="n" style="text;html=1;strokeColor=none;fillColor=none;align=center;verticalAlign=middle;whiteSpace=wrap;rounded=0;" parent="1" vertex="1">
          <mxGeometry x="798.08" y="1130" width="60" height="30" as="geometry" />
        </mxCell>
        <mxCell id="2nLP9KUXU7uZTx3rWCLJ-53" value="" style="endArrow=none;html=1;rounded=0;entryX=0.45;entryY=0;entryDx=0;entryDy=0;entryPerimeter=0;" parent="1" source="2nLP9KUXU7uZTx3rWCLJ-56" target="hL4TjKniRrkw36ojrrID-49" edge="1">
          <mxGeometry width="50" height="50" relative="1" as="geometry">
            <mxPoint x="438.08" y="1315" as="sourcePoint" />
            <mxPoint x="398.08" y="1345" as="targetPoint" />
          </mxGeometry>
        </mxCell>
        <mxCell id="2nLP9KUXU7uZTx3rWCLJ-55" value="" style="endArrow=none;html=1;rounded=0;entryX=0.5;entryY=0;entryDx=0;entryDy=0;" parent="1" source="2nLP9KUXU7uZTx3rWCLJ-14" target="2nLP9KUXU7uZTx3rWCLJ-56" edge="1">
          <mxGeometry width="50" height="50" relative="1" as="geometry">
            <mxPoint x="398.08" y="1265" as="sourcePoint" />
            <mxPoint x="398.08" y="1345" as="targetPoint" />
          </mxGeometry>
        </mxCell>
        <mxCell id="2nLP9KUXU7uZTx3rWCLJ-56" value="(0,n)" style="text;html=1;strokeColor=none;fillColor=none;align=center;verticalAlign=middle;whiteSpace=wrap;rounded=0;" parent="1" vertex="1">
          <mxGeometry x="238.07999999999998" y="1295" width="60" height="30" as="geometry" />
        </mxCell>
        <mxCell id="2nLP9KUXU7uZTx3rWCLJ-57" value="" style="endArrow=none;html=1;rounded=0;entryX=1;entryY=0;entryDx=0;entryDy=0;" parent="1" source="2nLP9KUXU7uZTx3rWCLJ-59" target="2nLP9KUXU7uZTx3rWCLJ-15" edge="1">
          <mxGeometry width="50" height="50" relative="1" as="geometry">
            <mxPoint x="848.08" y="1750" as="sourcePoint" />
            <mxPoint x="848.08" y="1770.7106781186549" as="targetPoint" />
          </mxGeometry>
        </mxCell>
        <mxCell id="2nLP9KUXU7uZTx3rWCLJ-58" value="" style="endArrow=none;html=1;rounded=0;entryX=0.5;entryY=0;entryDx=0;entryDy=0;" parent="1" target="2nLP9KUXU7uZTx3rWCLJ-59" edge="1">
          <mxGeometry width="50" height="50" relative="1" as="geometry">
            <mxPoint x="748.08" y="1475" as="sourcePoint" />
            <mxPoint x="758.08" y="1485" as="targetPoint" />
          </mxGeometry>
        </mxCell>
        <mxCell id="2nLP9KUXU7uZTx3rWCLJ-59" value="1" style="text;html=1;strokeColor=none;fillColor=none;align=center;verticalAlign=middle;whiteSpace=wrap;rounded=0;" parent="1" vertex="1">
          <mxGeometry x="678.08" y="1365" width="60" height="30" as="geometry" />
        </mxCell>
        <mxCell id="2nLP9KUXU7uZTx3rWCLJ-60" value="" style="endArrow=none;html=1;rounded=0;entryX=0.5;entryY=1;entryDx=0;entryDy=0;" parent="1" source="2nLP9KUXU7uZTx3rWCLJ-62" target="hL4TjKniRrkw36ojrrID-102" edge="1">
          <mxGeometry width="50" height="50" relative="1" as="geometry">
            <mxPoint x="768.08" y="1900" as="sourcePoint" />
            <mxPoint x="728.08" y="1920" as="targetPoint" />
          </mxGeometry>
        </mxCell>
        <mxCell id="2nLP9KUXU7uZTx3rWCLJ-61" value="" style="endArrow=none;html=1;rounded=0;entryX=0.5;entryY=0;entryDx=0;entryDy=0;" parent="1" source="2nLP9KUXU7uZTx3rWCLJ-15" target="2nLP9KUXU7uZTx3rWCLJ-62" edge="1">
          <mxGeometry width="50" height="50" relative="1" as="geometry">
            <mxPoint x="757.08" y="1839" as="sourcePoint" />
            <mxPoint x="728.08" y="1920" as="targetPoint" />
          </mxGeometry>
        </mxCell>
        <mxCell id="2nLP9KUXU7uZTx3rWCLJ-62" value="n" style="text;html=1;strokeColor=none;fillColor=none;align=center;verticalAlign=middle;whiteSpace=wrap;rounded=0;" parent="1" vertex="1">
          <mxGeometry x="468.0799999999999" y="1340" width="60" height="30" as="geometry" />
        </mxCell>
        <mxCell id="2nLP9KUXU7uZTx3rWCLJ-63" value="" style="endArrow=none;html=1;rounded=0;entryX=0;entryY=0.5;entryDx=0;entryDy=0;" parent="1" source="2nLP9KUXU7uZTx3rWCLJ-65" target="hL4TjKniRrkw36ojrrID-87" edge="1">
          <mxGeometry width="50" height="50" relative="1" as="geometry">
            <mxPoint x="915.08" y="1890" as="sourcePoint" />
            <mxPoint x="968.08" y="1920" as="targetPoint" />
          </mxGeometry>
        </mxCell>
        <mxCell id="2nLP9KUXU7uZTx3rWCLJ-64" value="" style="endArrow=none;html=1;rounded=0;entryX=0.5;entryY=0;entryDx=0;entryDy=0;" parent="1" source="2nLP9KUXU7uZTx3rWCLJ-16" target="2nLP9KUXU7uZTx3rWCLJ-65" edge="1">
          <mxGeometry width="50" height="50" relative="1" as="geometry">
            <mxPoint x="927.08" y="1828" as="sourcePoint" />
            <mxPoint x="968.08" y="1920" as="targetPoint" />
          </mxGeometry>
        </mxCell>
        <mxCell id="2nLP9KUXU7uZTx3rWCLJ-65" value="n" style="text;html=1;strokeColor=none;fillColor=none;align=center;verticalAlign=middle;whiteSpace=wrap;rounded=0;" parent="1" vertex="1">
          <mxGeometry x="1307.08" y="1210" width="60" height="30" as="geometry" />
        </mxCell>
        <mxCell id="2nLP9KUXU7uZTx3rWCLJ-66" value="" style="endArrow=none;html=1;rounded=0;entryX=0;entryY=0.5;entryDx=0;entryDy=0;" parent="1" source="2nLP9KUXU7uZTx3rWCLJ-68" target="2nLP9KUXU7uZTx3rWCLJ-16" edge="1">
          <mxGeometry width="50" height="50" relative="1" as="geometry">
            <mxPoint x="848.08" y="1750" as="sourcePoint" />
            <mxPoint x="848.08" y="1770.7106781186549" as="targetPoint" />
          </mxGeometry>
        </mxCell>
        <mxCell id="2nLP9KUXU7uZTx3rWCLJ-67" value="" style="endArrow=none;html=1;rounded=0;entryX=0.5;entryY=0;entryDx=0;entryDy=0;" parent="1" target="2nLP9KUXU7uZTx3rWCLJ-68" edge="1">
          <mxGeometry width="50" height="50" relative="1" as="geometry">
            <mxPoint x="930" y="1510" as="sourcePoint" />
            <mxPoint x="875.08" y="1485" as="targetPoint" />
          </mxGeometry>
        </mxCell>
        <mxCell id="2nLP9KUXU7uZTx3rWCLJ-68" value="n" style="text;html=1;strokeColor=none;fillColor=none;align=center;verticalAlign=middle;whiteSpace=wrap;rounded=0;" parent="1" vertex="1">
          <mxGeometry x="1048.08" y="1405" width="60" height="30" as="geometry" />
        </mxCell>
        <mxCell id="2nLP9KUXU7uZTx3rWCLJ-87" value="Chức Vụ" style="shape=table;startSize=30;container=1;collapsible=0;childLayout=tableLayout;fixedRows=1;rowLines=0;fontStyle=0;strokeColor=default;fontSize=16;" parent="1" vertex="1">
          <mxGeometry x="178.07999999999998" y="990" width="180" height="120" as="geometry" />
        </mxCell>
        <mxCell id="2nLP9KUXU7uZTx3rWCLJ-88" value="" style="shape=tableRow;horizontal=0;startSize=0;swimlaneHead=0;swimlaneBody=0;top=0;left=0;bottom=0;right=0;collapsible=0;dropTarget=0;fillColor=none;points=[[0,0.5],[1,0.5]];portConstraint=eastwest;strokeColor=inherit;fontSize=16;" parent="2nLP9KUXU7uZTx3rWCLJ-87" vertex="1">
          <mxGeometry y="30" width="180" height="30" as="geometry" />
        </mxCell>
        <mxCell id="2nLP9KUXU7uZTx3rWCLJ-89" value="&lt;b&gt;PK&lt;/b&gt;" style="shape=partialRectangle;html=1;whiteSpace=wrap;connectable=0;fillColor=none;top=0;left=0;bottom=0;right=0;overflow=hidden;pointerEvents=1;strokeColor=inherit;fontSize=16;" parent="2nLP9KUXU7uZTx3rWCLJ-88" vertex="1">
          <mxGeometry width="40" height="30" as="geometry">
            <mxRectangle width="40" height="30" as="alternateBounds" />
          </mxGeometry>
        </mxCell>
        <mxCell id="2nLP9KUXU7uZTx3rWCLJ-90" value="&lt;b&gt;&lt;u&gt;Id&lt;/u&gt;&lt;/b&gt;" style="shape=partialRectangle;html=1;whiteSpace=wrap;connectable=0;fillColor=none;top=0;left=0;bottom=0;right=0;align=left;spacingLeft=6;overflow=hidden;strokeColor=inherit;fontSize=16;" parent="2nLP9KUXU7uZTx3rWCLJ-88" vertex="1">
          <mxGeometry x="40" width="140" height="30" as="geometry">
            <mxRectangle width="140" height="30" as="alternateBounds" />
          </mxGeometry>
        </mxCell>
        <mxCell id="2nLP9KUXU7uZTx3rWCLJ-91" value="" style="shape=tableRow;horizontal=0;startSize=0;swimlaneHead=0;swimlaneBody=0;top=0;left=0;bottom=0;right=0;collapsible=0;dropTarget=0;fillColor=none;points=[[0,0.5],[1,0.5]];portConstraint=eastwest;strokeColor=inherit;fontSize=16;" parent="2nLP9KUXU7uZTx3rWCLJ-87" vertex="1">
          <mxGeometry y="60" width="180" height="30" as="geometry" />
        </mxCell>
        <mxCell id="2nLP9KUXU7uZTx3rWCLJ-92" value="" style="shape=partialRectangle;html=1;whiteSpace=wrap;connectable=0;fillColor=none;top=0;left=0;bottom=0;right=0;overflow=hidden;strokeColor=inherit;fontSize=16;" parent="2nLP9KUXU7uZTx3rWCLJ-91" vertex="1">
          <mxGeometry width="40" height="30" as="geometry">
            <mxRectangle width="40" height="30" as="alternateBounds" />
          </mxGeometry>
        </mxCell>
        <mxCell id="2nLP9KUXU7uZTx3rWCLJ-93" value="Ma" style="shape=partialRectangle;html=1;whiteSpace=wrap;connectable=0;fillColor=none;top=0;left=0;bottom=0;right=0;align=left;spacingLeft=6;overflow=hidden;strokeColor=inherit;fontSize=16;" parent="2nLP9KUXU7uZTx3rWCLJ-91" vertex="1">
          <mxGeometry x="40" width="140" height="30" as="geometry">
            <mxRectangle width="140" height="30" as="alternateBounds" />
          </mxGeometry>
        </mxCell>
        <mxCell id="2nLP9KUXU7uZTx3rWCLJ-94" value="" style="shape=tableRow;horizontal=0;startSize=0;swimlaneHead=0;swimlaneBody=0;top=0;left=0;bottom=0;right=0;collapsible=0;dropTarget=0;fillColor=none;points=[[0,0.5],[1,0.5]];portConstraint=eastwest;strokeColor=inherit;fontSize=16;" parent="2nLP9KUXU7uZTx3rWCLJ-87" vertex="1">
          <mxGeometry y="90" width="180" height="30" as="geometry" />
        </mxCell>
        <mxCell id="2nLP9KUXU7uZTx3rWCLJ-95" value="" style="shape=partialRectangle;html=1;whiteSpace=wrap;connectable=0;fillColor=none;top=0;left=0;bottom=0;right=0;overflow=hidden;strokeColor=inherit;fontSize=16;" parent="2nLP9KUXU7uZTx3rWCLJ-94" vertex="1">
          <mxGeometry width="40" height="30" as="geometry">
            <mxRectangle width="40" height="30" as="alternateBounds" />
          </mxGeometry>
        </mxCell>
        <mxCell id="2nLP9KUXU7uZTx3rWCLJ-96" value="Ten" style="shape=partialRectangle;html=1;whiteSpace=wrap;connectable=0;fillColor=none;top=0;left=0;bottom=0;right=0;align=left;spacingLeft=6;overflow=hidden;strokeColor=inherit;fontSize=16;" parent="2nLP9KUXU7uZTx3rWCLJ-94" vertex="1">
          <mxGeometry x="40" width="140" height="30" as="geometry">
            <mxRectangle width="140" height="30" as="alternateBounds" />
          </mxGeometry>
        </mxCell>
        <mxCell id="2nLP9KUXU7uZTx3rWCLJ-110" value="" style="endArrow=none;html=1;rounded=0;exitX=0.994;exitY=-0.033;exitDx=0;exitDy=0;exitPerimeter=0;entryX=-0.006;entryY=0;entryDx=0;entryDy=0;entryPerimeter=0;jumpSize=14;fontStyle=1" parent="2nLP9KUXU7uZTx3rWCLJ-87" source="2nLP9KUXU7uZTx3rWCLJ-91" target="2nLP9KUXU7uZTx3rWCLJ-91" edge="1">
          <mxGeometry width="50" height="50" relative="1" as="geometry">
            <mxPoint x="270" y="40" as="sourcePoint" />
            <mxPoint x="320" y="-10" as="targetPoint" />
          </mxGeometry>
        </mxCell>
        <mxCell id="2nLP9KUXU7uZTx3rWCLJ-114" value="" style="endArrow=none;html=1;rounded=0;entryX=0.494;entryY=1.1;entryDx=0;entryDy=0;entryPerimeter=0;" parent="1" source="2nLP9KUXU7uZTx3rWCLJ-116" target="2nLP9KUXU7uZTx3rWCLJ-94" edge="1">
          <mxGeometry width="50" height="50" relative="1" as="geometry">
            <mxPoint x="398.08" y="1164.2893218813451" as="sourcePoint" />
            <mxPoint x="398.08" y="1114.2893218813451" as="targetPoint" />
          </mxGeometry>
        </mxCell>
        <mxCell id="2nLP9KUXU7uZTx3rWCLJ-115" value="" style="endArrow=none;html=1;rounded=0;entryX=0.494;entryY=1.1;entryDx=0;entryDy=0;entryPerimeter=0;" parent="1" source="2nLP9KUXU7uZTx3rWCLJ-14" target="2nLP9KUXU7uZTx3rWCLJ-116" edge="1">
          <mxGeometry width="50" height="50" relative="1" as="geometry">
            <mxPoint x="398.08" y="1185" as="sourcePoint" />
            <mxPoint x="397.08" y="1103" as="targetPoint" />
          </mxGeometry>
        </mxCell>
        <mxCell id="2nLP9KUXU7uZTx3rWCLJ-116" value="1" style="text;html=1;strokeColor=none;fillColor=none;align=center;verticalAlign=middle;whiteSpace=wrap;rounded=0;" parent="1" vertex="1">
          <mxGeometry x="238.07999999999998" y="1145" width="60" height="30" as="geometry" />
        </mxCell>
        <mxCell id="2nLP9KUXU7uZTx3rWCLJ-117" value="ChiTietSP" style="shape=table;startSize=30;container=1;collapsible=0;childLayout=tableLayout;fixedRows=1;rowLines=0;fontStyle=0;strokeColor=default;fontSize=16;" parent="1" vertex="1">
          <mxGeometry x="714.96" y="420" width="180.92" height="160" as="geometry" />
        </mxCell>
        <mxCell id="2nLP9KUXU7uZTx3rWCLJ-118" value="" style="shape=tableRow;horizontal=0;startSize=0;swimlaneHead=0;swimlaneBody=0;top=0;left=0;bottom=0;right=0;collapsible=0;dropTarget=0;fillColor=none;points=[[0,0.5],[1,0.5]];portConstraint=eastwest;strokeColor=inherit;fontSize=16;" parent="2nLP9KUXU7uZTx3rWCLJ-117" vertex="1">
          <mxGeometry y="30" width="180.92" height="30" as="geometry" />
        </mxCell>
        <mxCell id="2nLP9KUXU7uZTx3rWCLJ-119" value="&lt;b&gt;PK&lt;/b&gt;" style="shape=partialRectangle;html=1;whiteSpace=wrap;connectable=0;fillColor=none;top=0;left=0;bottom=0;right=0;overflow=hidden;pointerEvents=1;strokeColor=inherit;fontSize=16;" parent="2nLP9KUXU7uZTx3rWCLJ-118" vertex="1">
          <mxGeometry width="41" height="30" as="geometry">
            <mxRectangle width="41" height="30" as="alternateBounds" />
          </mxGeometry>
        </mxCell>
        <mxCell id="2nLP9KUXU7uZTx3rWCLJ-120" value="&lt;u&gt;&lt;b&gt;Id&lt;/b&gt;&lt;/u&gt;" style="shape=partialRectangle;html=1;whiteSpace=wrap;connectable=0;fillColor=none;top=0;left=0;bottom=0;right=0;align=left;spacingLeft=6;overflow=hidden;strokeColor=inherit;fontSize=16;" parent="2nLP9KUXU7uZTx3rWCLJ-118" vertex="1">
          <mxGeometry x="41" width="140" height="30" as="geometry">
            <mxRectangle width="140" height="30" as="alternateBounds" />
          </mxGeometry>
        </mxCell>
        <mxCell id="2nLP9KUXU7uZTx3rWCLJ-127" value="" style="endArrow=none;html=1;rounded=0;exitX=0.989;exitY=-0.067;exitDx=0;exitDy=0;exitPerimeter=0;entryX=-0.006;entryY=-0.067;entryDx=0;entryDy=0;entryPerimeter=0;" parent="2nLP9KUXU7uZTx3rWCLJ-117" edge="1">
          <mxGeometry width="50" height="50" relative="1" as="geometry">
            <mxPoint x="178.92988000000014" y="57.99000000000001" as="sourcePoint" />
            <mxPoint x="-1.0855200000000877" y="57.99000000000001" as="targetPoint" />
          </mxGeometry>
        </mxCell>
        <mxCell id="2nLP9KUXU7uZTx3rWCLJ-162" value="Khách Hàng" style="shape=table;startSize=30;container=1;collapsible=0;childLayout=tableLayout;fixedRows=1;rowLines=0;fontStyle=0;strokeColor=default;fontSize=16;" parent="1" vertex="1">
          <mxGeometry x="1307.08" y="1515" width="181" height="220" as="geometry" />
        </mxCell>
        <mxCell id="2nLP9KUXU7uZTx3rWCLJ-163" value="" style="shape=tableRow;horizontal=0;startSize=0;swimlaneHead=0;swimlaneBody=0;top=0;left=0;bottom=0;right=0;collapsible=0;dropTarget=0;fillColor=none;points=[[0,0.5],[1,0.5]];portConstraint=eastwest;strokeColor=inherit;fontSize=16;" parent="2nLP9KUXU7uZTx3rWCLJ-162" vertex="1">
          <mxGeometry y="30" width="181" height="30" as="geometry" />
        </mxCell>
        <mxCell id="2nLP9KUXU7uZTx3rWCLJ-164" value="&lt;b&gt;PK&lt;/b&gt;" style="shape=partialRectangle;html=1;whiteSpace=wrap;connectable=0;fillColor=none;top=0;left=0;bottom=0;right=0;overflow=hidden;pointerEvents=1;strokeColor=inherit;fontSize=16;" parent="2nLP9KUXU7uZTx3rWCLJ-163" vertex="1">
          <mxGeometry width="40" height="30" as="geometry">
            <mxRectangle width="40" height="30" as="alternateBounds" />
          </mxGeometry>
        </mxCell>
        <mxCell id="2nLP9KUXU7uZTx3rWCLJ-165" value="&lt;b&gt;&lt;u&gt;Id&lt;/u&gt;&lt;/b&gt;" style="shape=partialRectangle;html=1;whiteSpace=wrap;connectable=0;fillColor=none;top=0;left=0;bottom=0;right=0;align=left;spacingLeft=6;overflow=hidden;strokeColor=inherit;fontSize=16;" parent="2nLP9KUXU7uZTx3rWCLJ-163" vertex="1">
          <mxGeometry x="40" width="141" height="30" as="geometry">
            <mxRectangle width="141" height="30" as="alternateBounds" />
          </mxGeometry>
        </mxCell>
        <mxCell id="2nLP9KUXU7uZTx3rWCLJ-166" value="" style="shape=tableRow;horizontal=0;startSize=0;swimlaneHead=0;swimlaneBody=0;top=0;left=0;bottom=0;right=0;collapsible=0;dropTarget=0;fillColor=none;points=[[0,0.5],[1,0.5]];portConstraint=eastwest;strokeColor=inherit;fontSize=16;" parent="2nLP9KUXU7uZTx3rWCLJ-162" vertex="1">
          <mxGeometry y="60" width="181" height="30" as="geometry" />
        </mxCell>
        <mxCell id="2nLP9KUXU7uZTx3rWCLJ-167" value="" style="shape=partialRectangle;html=1;whiteSpace=wrap;connectable=0;fillColor=none;top=0;left=0;bottom=0;right=0;overflow=hidden;strokeColor=inherit;fontSize=16;" parent="2nLP9KUXU7uZTx3rWCLJ-166" vertex="1">
          <mxGeometry width="40" height="30" as="geometry">
            <mxRectangle width="40" height="30" as="alternateBounds" />
          </mxGeometry>
        </mxCell>
        <mxCell id="2nLP9KUXU7uZTx3rWCLJ-168" value="Ma" style="shape=partialRectangle;html=1;whiteSpace=wrap;connectable=0;fillColor=none;top=0;left=0;bottom=0;right=0;align=left;spacingLeft=6;overflow=hidden;strokeColor=inherit;fontSize=16;" parent="2nLP9KUXU7uZTx3rWCLJ-166" vertex="1">
          <mxGeometry x="40" width="141" height="30" as="geometry">
            <mxRectangle width="141" height="30" as="alternateBounds" />
          </mxGeometry>
        </mxCell>
        <mxCell id="2nLP9KUXU7uZTx3rWCLJ-169" value="" style="shape=tableRow;horizontal=0;startSize=0;swimlaneHead=0;swimlaneBody=0;top=0;left=0;bottom=0;right=0;collapsible=0;dropTarget=0;fillColor=none;points=[[0,0.5],[1,0.5]];portConstraint=eastwest;strokeColor=inherit;fontSize=16;" parent="2nLP9KUXU7uZTx3rWCLJ-162" vertex="1">
          <mxGeometry y="90" width="181" height="30" as="geometry" />
        </mxCell>
        <mxCell id="2nLP9KUXU7uZTx3rWCLJ-170" value="" style="shape=partialRectangle;html=1;whiteSpace=wrap;connectable=0;fillColor=none;top=0;left=0;bottom=0;right=0;overflow=hidden;strokeColor=inherit;fontSize=16;" parent="2nLP9KUXU7uZTx3rWCLJ-169" vertex="1">
          <mxGeometry width="40" height="30" as="geometry">
            <mxRectangle width="40" height="30" as="alternateBounds" />
          </mxGeometry>
        </mxCell>
        <mxCell id="2nLP9KUXU7uZTx3rWCLJ-171" value="Ten" style="shape=partialRectangle;html=1;whiteSpace=wrap;connectable=0;fillColor=none;top=0;left=0;bottom=0;right=0;align=left;spacingLeft=6;overflow=hidden;strokeColor=inherit;fontSize=16;" parent="2nLP9KUXU7uZTx3rWCLJ-169" vertex="1">
          <mxGeometry x="40" width="141" height="30" as="geometry">
            <mxRectangle width="141" height="30" as="alternateBounds" />
          </mxGeometry>
        </mxCell>
        <mxCell id="hL4TjKniRrkw36ojrrID-7" value="" style="endArrow=none;html=1;rounded=0;entryX=0.221;entryY=0;entryDx=0;entryDy=0;entryPerimeter=0;" parent="2nLP9KUXU7uZTx3rWCLJ-162" target="2nLP9KUXU7uZTx3rWCLJ-163" edge="1">
          <mxGeometry width="50" height="50" relative="1" as="geometry">
            <mxPoint x="40" y="220" as="sourcePoint" />
            <mxPoint x="81" y="110" as="targetPoint" />
          </mxGeometry>
        </mxCell>
        <mxCell id="hL4TjKniRrkw36ojrrID-8" value="" style="endArrow=none;html=1;rounded=0;exitX=-0.006;exitY=0.067;exitDx=0;exitDy=0;exitPerimeter=0;entryX=0.994;entryY=0.033;entryDx=0;entryDy=0;entryPerimeter=0;" parent="2nLP9KUXU7uZTx3rWCLJ-162" source="2nLP9KUXU7uZTx3rWCLJ-166" target="2nLP9KUXU7uZTx3rWCLJ-166" edge="1">
          <mxGeometry width="50" height="50" relative="1" as="geometry">
            <mxPoint x="51" y="110" as="sourcePoint" />
            <mxPoint x="101" y="60" as="targetPoint" />
          </mxGeometry>
        </mxCell>
        <mxCell id="hL4TjKniRrkw36ojrrID-1" value="" style="shape=partialRectangle;html=1;whiteSpace=wrap;connectable=0;fillColor=none;top=0;left=0;bottom=0;right=0;overflow=hidden;pointerEvents=1;strokeColor=inherit;fontSize=16;" parent="1" vertex="1">
          <mxGeometry x="1307.08" y="1635" width="40" height="30" as="geometry">
            <mxRectangle width="40" height="30" as="alternateBounds" />
          </mxGeometry>
        </mxCell>
        <mxCell id="hL4TjKniRrkw36ojrrID-2" value="SDT" style="shape=partialRectangle;html=1;whiteSpace=wrap;connectable=0;fillColor=none;top=0;left=0;bottom=0;right=0;align=left;spacingLeft=6;overflow=hidden;strokeColor=inherit;fontSize=16;" parent="1" vertex="1">
          <mxGeometry x="1347.08" y="1635" width="140" height="30" as="geometry">
            <mxRectangle width="140" height="30" as="alternateBounds" />
          </mxGeometry>
        </mxCell>
        <mxCell id="hL4TjKniRrkw36ojrrID-3" value="" style="shape=partialRectangle;html=1;whiteSpace=wrap;connectable=0;fillColor=none;top=0;left=0;bottom=0;right=0;overflow=hidden;strokeColor=inherit;fontSize=16;" parent="1" vertex="1">
          <mxGeometry x="1307.08" y="1665" width="40" height="30" as="geometry">
            <mxRectangle width="40" height="30" as="alternateBounds" />
          </mxGeometry>
        </mxCell>
        <mxCell id="hL4TjKniRrkw36ojrrID-4" value="NgaySinh" style="shape=partialRectangle;html=1;whiteSpace=wrap;connectable=0;fillColor=none;top=0;left=0;bottom=0;right=0;align=left;spacingLeft=6;overflow=hidden;strokeColor=inherit;fontSize=16;" parent="1" vertex="1">
          <mxGeometry x="1347.08" y="1665" width="140" height="30" as="geometry">
            <mxRectangle width="140" height="30" as="alternateBounds" />
          </mxGeometry>
        </mxCell>
        <mxCell id="hL4TjKniRrkw36ojrrID-5" value="" style="shape=partialRectangle;html=1;whiteSpace=wrap;connectable=0;fillColor=none;top=0;left=0;bottom=0;right=0;overflow=hidden;strokeColor=inherit;fontSize=16;" parent="1" vertex="1">
          <mxGeometry x="1307.08" y="1695" width="40" height="30" as="geometry">
            <mxRectangle width="40" height="30" as="alternateBounds" />
          </mxGeometry>
        </mxCell>
        <mxCell id="hL4TjKniRrkw36ojrrID-6" value="DiaChi" style="shape=partialRectangle;html=1;whiteSpace=wrap;connectable=0;fillColor=none;top=0;left=0;bottom=0;right=0;align=left;spacingLeft=6;overflow=hidden;strokeColor=inherit;fontSize=16;" parent="1" vertex="1">
          <mxGeometry x="1347.08" y="1695" width="140" height="30" as="geometry">
            <mxRectangle width="140" height="30" as="alternateBounds" />
          </mxGeometry>
        </mxCell>
        <mxCell id="hL4TjKniRrkw36ojrrID-10" value="Hóa Đơn" style="shape=table;startSize=30;container=1;collapsible=0;childLayout=tableLayout;fixedRows=1;rowLines=0;fontStyle=0;strokeColor=default;fontSize=16;" parent="1" vertex="1">
          <mxGeometry x="748.08" y="1345" width="180" height="365" as="geometry" />
        </mxCell>
        <mxCell id="hL4TjKniRrkw36ojrrID-11" value="" style="shape=tableRow;horizontal=0;startSize=0;swimlaneHead=0;swimlaneBody=0;top=0;left=0;bottom=0;right=0;collapsible=0;dropTarget=0;fillColor=none;points=[[0,0.5],[1,0.5]];portConstraint=eastwest;strokeColor=inherit;fontSize=16;" parent="hL4TjKniRrkw36ojrrID-10" vertex="1">
          <mxGeometry y="30" width="180" height="30" as="geometry" />
        </mxCell>
        <mxCell id="hL4TjKniRrkw36ojrrID-12" value="&lt;b&gt;PK&lt;/b&gt;" style="shape=partialRectangle;html=1;whiteSpace=wrap;connectable=0;fillColor=none;top=0;left=0;bottom=0;right=0;overflow=hidden;pointerEvents=1;strokeColor=inherit;fontSize=16;" parent="hL4TjKniRrkw36ojrrID-11" vertex="1">
          <mxGeometry width="40" height="30" as="geometry">
            <mxRectangle width="40" height="30" as="alternateBounds" />
          </mxGeometry>
        </mxCell>
        <mxCell id="hL4TjKniRrkw36ojrrID-13" value="&lt;b&gt;&lt;u&gt;Id&lt;/u&gt;&lt;/b&gt;" style="shape=partialRectangle;html=1;whiteSpace=wrap;connectable=0;fillColor=none;top=0;left=0;bottom=0;right=0;align=left;spacingLeft=6;overflow=hidden;strokeColor=inherit;fontSize=16;" parent="hL4TjKniRrkw36ojrrID-11" vertex="1">
          <mxGeometry x="40" width="140" height="30" as="geometry">
            <mxRectangle width="140" height="30" as="alternateBounds" />
          </mxGeometry>
        </mxCell>
        <mxCell id="hL4TjKniRrkw36ojrrID-14" value="" style="shape=tableRow;horizontal=0;startSize=0;swimlaneHead=0;swimlaneBody=0;top=0;left=0;bottom=0;right=0;collapsible=0;dropTarget=0;fillColor=none;points=[[0,0.5],[1,0.5]];portConstraint=eastwest;strokeColor=inherit;fontSize=16;" parent="hL4TjKniRrkw36ojrrID-10" vertex="1">
          <mxGeometry y="60" width="180" height="30" as="geometry" />
        </mxCell>
        <mxCell id="hL4TjKniRrkw36ojrrID-15" value="&lt;b&gt;FK&lt;/b&gt;" style="shape=partialRectangle;html=1;whiteSpace=wrap;connectable=0;fillColor=none;top=0;left=0;bottom=0;right=0;overflow=hidden;strokeColor=inherit;fontSize=16;" parent="hL4TjKniRrkw36ojrrID-14" vertex="1">
          <mxGeometry width="40" height="30" as="geometry">
            <mxRectangle width="40" height="30" as="alternateBounds" />
          </mxGeometry>
        </mxCell>
        <mxCell id="hL4TjKniRrkw36ojrrID-16" value="&lt;b&gt;IdKH&lt;/b&gt;" style="shape=partialRectangle;html=1;whiteSpace=wrap;connectable=0;fillColor=none;top=0;left=0;bottom=0;right=0;align=left;spacingLeft=6;overflow=hidden;strokeColor=inherit;fontSize=16;" parent="hL4TjKniRrkw36ojrrID-14" vertex="1">
          <mxGeometry x="40" width="140" height="30" as="geometry">
            <mxRectangle width="140" height="30" as="alternateBounds" />
          </mxGeometry>
        </mxCell>
        <mxCell id="hL4TjKniRrkw36ojrrID-17" value="" style="shape=tableRow;horizontal=0;startSize=0;swimlaneHead=0;swimlaneBody=0;top=0;left=0;bottom=0;right=0;collapsible=0;dropTarget=0;fillColor=none;points=[[0,0.5],[1,0.5]];portConstraint=eastwest;strokeColor=inherit;fontSize=16;" parent="hL4TjKniRrkw36ojrrID-10" vertex="1">
          <mxGeometry y="90" width="180" height="30" as="geometry" />
        </mxCell>
        <mxCell id="hL4TjKniRrkw36ojrrID-18" value="&lt;b&gt;FK&lt;/b&gt;" style="shape=partialRectangle;html=1;whiteSpace=wrap;connectable=0;fillColor=none;top=0;left=0;bottom=0;right=0;overflow=hidden;strokeColor=inherit;fontSize=16;" parent="hL4TjKniRrkw36ojrrID-17" vertex="1">
          <mxGeometry width="40" height="30" as="geometry">
            <mxRectangle width="40" height="30" as="alternateBounds" />
          </mxGeometry>
        </mxCell>
        <mxCell id="hL4TjKniRrkw36ojrrID-19" value="&lt;b&gt;IdNV&lt;/b&gt;" style="shape=partialRectangle;html=1;whiteSpace=wrap;connectable=0;fillColor=none;top=0;left=0;bottom=0;right=0;align=left;spacingLeft=6;overflow=hidden;strokeColor=inherit;fontSize=16;" parent="hL4TjKniRrkw36ojrrID-17" vertex="1">
          <mxGeometry x="40" width="140" height="30" as="geometry">
            <mxRectangle width="140" height="30" as="alternateBounds" />
          </mxGeometry>
        </mxCell>
        <mxCell id="hL4TjKniRrkw36ojrrID-47" value="" style="endArrow=none;html=1;rounded=0;exitX=-0.006;exitY=0;exitDx=0;exitDy=0;exitPerimeter=0;entryX=0.994;entryY=1.033;entryDx=0;entryDy=0;entryPerimeter=0;" parent="hL4TjKniRrkw36ojrrID-10" source="hL4TjKniRrkw36ojrrID-14" target="hL4TjKniRrkw36ojrrID-11" edge="1">
          <mxGeometry width="50" height="50" relative="1" as="geometry">
            <mxPoint x="120" y="110" as="sourcePoint" />
            <mxPoint x="170" y="60" as="targetPoint" />
          </mxGeometry>
        </mxCell>
        <mxCell id="hL4TjKniRrkw36ojrrID-32" value="&lt;b&gt;FK&lt;/b&gt;" style="shape=partialRectangle;html=1;whiteSpace=wrap;connectable=0;fillColor=none;top=0;left=0;bottom=0;right=0;overflow=hidden;strokeColor=inherit;fontSize=16;" parent="1" vertex="1">
          <mxGeometry x="748.08" y="1465" width="40" height="30" as="geometry">
            <mxRectangle width="40" height="30" as="alternateBounds" />
          </mxGeometry>
        </mxCell>
        <mxCell id="hL4TjKniRrkw36ojrrID-33" value="&lt;b&gt;IdVoucher&lt;/b&gt;" style="shape=partialRectangle;html=1;whiteSpace=wrap;connectable=0;fillColor=none;top=0;left=0;bottom=0;right=0;align=left;spacingLeft=6;overflow=hidden;strokeColor=inherit;fontSize=16;" parent="1" vertex="1">
          <mxGeometry x="788.08" y="1465" width="140" height="30" as="geometry">
            <mxRectangle width="140" height="30" as="alternateBounds" />
          </mxGeometry>
        </mxCell>
        <mxCell id="hL4TjKniRrkw36ojrrID-34" value="" style="shape=partialRectangle;html=1;whiteSpace=wrap;connectable=0;fillColor=none;top=0;left=0;bottom=0;right=0;overflow=hidden;strokeColor=inherit;fontSize=16;" parent="1" vertex="1">
          <mxGeometry x="748.08" y="1530" width="40" height="30" as="geometry">
            <mxRectangle width="40" height="30" as="alternateBounds" />
          </mxGeometry>
        </mxCell>
        <mxCell id="hL4TjKniRrkw36ojrrID-35" value="Ma" style="shape=partialRectangle;html=1;whiteSpace=wrap;connectable=0;fillColor=none;top=0;left=0;bottom=0;right=0;align=left;spacingLeft=6;overflow=hidden;strokeColor=inherit;fontSize=16;" parent="1" vertex="1">
          <mxGeometry x="788.08" y="1530" width="140" height="30" as="geometry">
            <mxRectangle width="140" height="30" as="alternateBounds" />
          </mxGeometry>
        </mxCell>
        <mxCell id="hL4TjKniRrkw36ojrrID-36" value="" style="shape=partialRectangle;html=1;whiteSpace=wrap;connectable=0;fillColor=none;top=0;left=0;bottom=0;right=0;overflow=hidden;strokeColor=inherit;fontSize=16;" parent="1" vertex="1">
          <mxGeometry x="748.08" y="1560" width="40" height="30" as="geometry">
            <mxRectangle width="40" height="30" as="alternateBounds" />
          </mxGeometry>
        </mxCell>
        <mxCell id="hL4TjKniRrkw36ojrrID-37" value="NgayTao" style="shape=partialRectangle;html=1;whiteSpace=wrap;connectable=0;fillColor=none;top=0;left=0;bottom=0;right=0;align=left;spacingLeft=6;overflow=hidden;strokeColor=inherit;fontSize=16;" parent="1" vertex="1">
          <mxGeometry x="788.08" y="1560" width="140" height="30" as="geometry">
            <mxRectangle width="140" height="30" as="alternateBounds" />
          </mxGeometry>
        </mxCell>
        <mxCell id="hL4TjKniRrkw36ojrrID-38" value="" style="shape=partialRectangle;html=1;whiteSpace=wrap;connectable=0;fillColor=none;top=0;left=0;bottom=0;right=0;overflow=hidden;strokeColor=inherit;fontSize=16;" parent="1" vertex="1">
          <mxGeometry x="748.08" y="1590" width="40" height="30" as="geometry">
            <mxRectangle width="40" height="30" as="alternateBounds" />
          </mxGeometry>
        </mxCell>
        <mxCell id="hL4TjKniRrkw36ojrrID-39" value="NgayThanhToan" style="shape=partialRectangle;html=1;whiteSpace=wrap;connectable=0;fillColor=none;top=0;left=0;bottom=0;right=0;align=left;spacingLeft=6;overflow=hidden;strokeColor=inherit;fontSize=16;" parent="1" vertex="1">
          <mxGeometry x="788.08" y="1590" width="140" height="30" as="geometry">
            <mxRectangle width="140" height="30" as="alternateBounds" />
          </mxGeometry>
        </mxCell>
        <mxCell id="hL4TjKniRrkw36ojrrID-40" value="" style="shape=partialRectangle;html=1;whiteSpace=wrap;connectable=0;fillColor=none;top=0;left=0;bottom=0;right=0;overflow=hidden;strokeColor=inherit;fontSize=16;" parent="1" vertex="1">
          <mxGeometry x="748.08" y="1620" width="40" height="30" as="geometry">
            <mxRectangle width="40" height="30" as="alternateBounds" />
          </mxGeometry>
        </mxCell>
        <mxCell id="hL4TjKniRrkw36ojrrID-41" value="TongTien" style="shape=partialRectangle;html=1;whiteSpace=wrap;connectable=0;fillColor=none;top=0;left=0;bottom=0;right=0;align=left;spacingLeft=6;overflow=hidden;strokeColor=inherit;fontSize=16;" parent="1" vertex="1">
          <mxGeometry x="788.08" y="1620" width="140" height="30" as="geometry">
            <mxRectangle width="140" height="30" as="alternateBounds" />
          </mxGeometry>
        </mxCell>
        <mxCell id="hL4TjKniRrkw36ojrrID-42" value="" style="shape=partialRectangle;html=1;whiteSpace=wrap;connectable=0;fillColor=none;top=0;left=0;bottom=0;right=0;overflow=hidden;strokeColor=inherit;fontSize=16;" parent="1" vertex="1">
          <mxGeometry x="748.08" y="1650" width="40" height="30" as="geometry">
            <mxRectangle width="40" height="30" as="alternateBounds" />
          </mxGeometry>
        </mxCell>
        <mxCell id="hL4TjKniRrkw36ojrrID-43" value="TongSanPham" style="shape=partialRectangle;html=1;whiteSpace=wrap;connectable=0;fillColor=none;top=0;left=0;bottom=0;right=0;align=left;spacingLeft=6;overflow=hidden;strokeColor=inherit;fontSize=16;" parent="1" vertex="1">
          <mxGeometry x="788.08" y="1650" width="140" height="30" as="geometry">
            <mxRectangle width="140" height="30" as="alternateBounds" />
          </mxGeometry>
        </mxCell>
        <mxCell id="hL4TjKniRrkw36ojrrID-44" value="" style="shape=partialRectangle;html=1;whiteSpace=wrap;connectable=0;fillColor=none;top=0;left=0;bottom=0;right=0;overflow=hidden;strokeColor=inherit;fontSize=16;" parent="1" vertex="1">
          <mxGeometry x="748.08" y="1680" width="40" height="30" as="geometry">
            <mxRectangle width="40" height="30" as="alternateBounds" />
          </mxGeometry>
        </mxCell>
        <mxCell id="hL4TjKniRrkw36ojrrID-45" value="TrangThai" style="shape=partialRectangle;html=1;whiteSpace=wrap;connectable=0;fillColor=none;top=0;left=0;bottom=0;right=0;align=left;spacingLeft=6;overflow=hidden;strokeColor=inherit;fontSize=16;" parent="1" vertex="1">
          <mxGeometry x="788.08" y="1680" width="140" height="30" as="geometry">
            <mxRectangle width="140" height="30" as="alternateBounds" />
          </mxGeometry>
        </mxCell>
        <mxCell id="hL4TjKniRrkw36ojrrID-46" value="" style="endArrow=none;html=1;rounded=0;entryX=0.222;entryY=0.067;entryDx=0;entryDy=0;entryPerimeter=0;" parent="1" target="hL4TjKniRrkw36ojrrID-11" edge="1">
          <mxGeometry width="50" height="50" relative="1" as="geometry">
            <mxPoint x="788.08" y="1675" as="sourcePoint" />
            <mxPoint x="828.08" y="1535" as="targetPoint" />
          </mxGeometry>
        </mxCell>
        <mxCell id="hL4TjKniRrkw36ojrrID-49" value="Nhân Viên" style="shape=table;startSize=30;container=1;collapsible=0;childLayout=tableLayout;fixedRows=1;rowLines=0;fontStyle=0;strokeColor=default;fontSize=16;" parent="1" vertex="1">
          <mxGeometry x="188.08" y="1355" width="180" height="315" as="geometry" />
        </mxCell>
        <mxCell id="hL4TjKniRrkw36ojrrID-50" value="" style="shape=tableRow;horizontal=0;startSize=0;swimlaneHead=0;swimlaneBody=0;top=0;left=0;bottom=0;right=0;collapsible=0;dropTarget=0;fillColor=none;points=[[0,0.5],[1,0.5]];portConstraint=eastwest;strokeColor=inherit;fontSize=16;" parent="hL4TjKniRrkw36ojrrID-49" vertex="1">
          <mxGeometry y="30" width="180" height="30" as="geometry" />
        </mxCell>
        <mxCell id="hL4TjKniRrkw36ojrrID-51" value="&lt;b&gt;PK&lt;/b&gt;" style="shape=partialRectangle;html=1;whiteSpace=wrap;connectable=0;fillColor=none;top=0;left=0;bottom=0;right=0;overflow=hidden;pointerEvents=1;strokeColor=inherit;fontSize=16;" parent="hL4TjKniRrkw36ojrrID-50" vertex="1">
          <mxGeometry width="40" height="30" as="geometry">
            <mxRectangle width="40" height="30" as="alternateBounds" />
          </mxGeometry>
        </mxCell>
        <mxCell id="hL4TjKniRrkw36ojrrID-52" value="&lt;b&gt;&lt;u&gt;Id&lt;/u&gt;&lt;/b&gt;" style="shape=partialRectangle;html=1;whiteSpace=wrap;connectable=0;fillColor=none;top=0;left=0;bottom=0;right=0;align=left;spacingLeft=6;overflow=hidden;strokeColor=inherit;fontSize=16;" parent="hL4TjKniRrkw36ojrrID-50" vertex="1">
          <mxGeometry x="40" width="140" height="30" as="geometry">
            <mxRectangle width="140" height="30" as="alternateBounds" />
          </mxGeometry>
        </mxCell>
        <mxCell id="hL4TjKniRrkw36ojrrID-53" value="" style="shape=tableRow;horizontal=0;startSize=0;swimlaneHead=0;swimlaneBody=0;top=0;left=0;bottom=0;right=0;collapsible=0;dropTarget=0;fillColor=none;points=[[0,0.5],[1,0.5]];portConstraint=eastwest;strokeColor=inherit;fontSize=16;" parent="hL4TjKniRrkw36ojrrID-49" vertex="1">
          <mxGeometry y="60" width="180" height="30" as="geometry" />
        </mxCell>
        <mxCell id="hL4TjKniRrkw36ojrrID-54" value="&lt;b&gt;FK&lt;/b&gt;" style="shape=partialRectangle;html=1;whiteSpace=wrap;connectable=0;fillColor=none;top=0;left=0;bottom=0;right=0;overflow=hidden;strokeColor=inherit;fontSize=16;" parent="hL4TjKniRrkw36ojrrID-53" vertex="1">
          <mxGeometry width="40" height="30" as="geometry">
            <mxRectangle width="40" height="30" as="alternateBounds" />
          </mxGeometry>
        </mxCell>
        <mxCell id="hL4TjKniRrkw36ojrrID-55" value="&lt;b&gt;IdCV&lt;/b&gt;" style="shape=partialRectangle;html=1;whiteSpace=wrap;connectable=0;fillColor=none;top=0;left=0;bottom=0;right=0;align=left;spacingLeft=6;overflow=hidden;strokeColor=inherit;fontSize=16;" parent="hL4TjKniRrkw36ojrrID-53" vertex="1">
          <mxGeometry x="40" width="140" height="30" as="geometry">
            <mxRectangle width="140" height="30" as="alternateBounds" />
          </mxGeometry>
        </mxCell>
        <mxCell id="hL4TjKniRrkw36ojrrID-56" value="" style="shape=tableRow;horizontal=0;startSize=0;swimlaneHead=0;swimlaneBody=0;top=0;left=0;bottom=0;right=0;collapsible=0;dropTarget=0;fillColor=none;points=[[0,0.5],[1,0.5]];portConstraint=eastwest;strokeColor=inherit;fontSize=16;" parent="hL4TjKniRrkw36ojrrID-49" vertex="1">
          <mxGeometry y="90" width="180" height="30" as="geometry" />
        </mxCell>
        <mxCell id="hL4TjKniRrkw36ojrrID-57" value="" style="shape=partialRectangle;html=1;whiteSpace=wrap;connectable=0;fillColor=none;top=0;left=0;bottom=0;right=0;overflow=hidden;strokeColor=inherit;fontSize=16;" parent="hL4TjKniRrkw36ojrrID-56" vertex="1">
          <mxGeometry width="40" height="30" as="geometry">
            <mxRectangle width="40" height="30" as="alternateBounds" />
          </mxGeometry>
        </mxCell>
        <mxCell id="hL4TjKniRrkw36ojrrID-58" value="Ma" style="shape=partialRectangle;html=1;whiteSpace=wrap;connectable=0;fillColor=none;top=0;left=0;bottom=0;right=0;align=left;spacingLeft=6;overflow=hidden;strokeColor=inherit;fontSize=16;" parent="hL4TjKniRrkw36ojrrID-56" vertex="1">
          <mxGeometry x="40" width="140" height="30" as="geometry">
            <mxRectangle width="140" height="30" as="alternateBounds" />
          </mxGeometry>
        </mxCell>
        <mxCell id="hL4TjKniRrkw36ojrrID-78" value="" style="endArrow=none;html=1;rounded=0;exitX=-0.006;exitY=0.033;exitDx=0;exitDy=0;exitPerimeter=0;" parent="hL4TjKniRrkw36ojrrID-49" source="hL4TjKniRrkw36ojrrID-53" edge="1">
          <mxGeometry width="50" height="50" relative="1" as="geometry">
            <mxPoint x="80" y="110" as="sourcePoint" />
            <mxPoint x="180" y="61" as="targetPoint" />
          </mxGeometry>
        </mxCell>
        <mxCell id="hL4TjKniRrkw36ojrrID-59" value="" style="shape=partialRectangle;html=1;whiteSpace=wrap;connectable=0;fillColor=none;top=0;left=0;bottom=0;right=0;overflow=hidden;pointerEvents=1;strokeColor=inherit;fontSize=16;" parent="1" vertex="1">
          <mxGeometry x="188.07999999999998" y="1475" width="40" height="30" as="geometry">
            <mxRectangle width="40" height="30" as="alternateBounds" />
          </mxGeometry>
        </mxCell>
        <mxCell id="hL4TjKniRrkw36ojrrID-60" value="Ten" style="shape=partialRectangle;html=1;whiteSpace=wrap;connectable=0;fillColor=none;top=0;left=0;bottom=0;right=0;align=left;spacingLeft=6;overflow=hidden;strokeColor=inherit;fontSize=16;" parent="1" vertex="1">
          <mxGeometry x="228.07999999999998" y="1475" width="140" height="30" as="geometry">
            <mxRectangle width="140" height="30" as="alternateBounds" />
          </mxGeometry>
        </mxCell>
        <mxCell id="hL4TjKniRrkw36ojrrID-65" value="" style="shape=partialRectangle;html=1;whiteSpace=wrap;connectable=0;fillColor=none;top=0;left=0;bottom=0;right=0;overflow=hidden;pointerEvents=1;strokeColor=inherit;fontSize=16;" parent="1" vertex="1">
          <mxGeometry x="188.07999999999998" y="1505" width="40" height="30" as="geometry">
            <mxRectangle width="40" height="30" as="alternateBounds" />
          </mxGeometry>
        </mxCell>
        <mxCell id="hL4TjKniRrkw36ojrrID-66" value="Sdt" style="shape=partialRectangle;html=1;whiteSpace=wrap;connectable=0;fillColor=none;top=0;left=0;bottom=0;right=0;align=left;spacingLeft=6;overflow=hidden;strokeColor=inherit;fontSize=16;" parent="1" vertex="1">
          <mxGeometry x="228.07999999999998" y="1505" width="140" height="30" as="geometry">
            <mxRectangle width="140" height="30" as="alternateBounds" />
          </mxGeometry>
        </mxCell>
        <mxCell id="hL4TjKniRrkw36ojrrID-67" value="" style="shape=partialRectangle;html=1;whiteSpace=wrap;connectable=0;fillColor=none;top=0;left=0;bottom=0;right=0;overflow=hidden;strokeColor=inherit;fontSize=16;" parent="1" vertex="1">
          <mxGeometry x="188.07999999999998" y="1535" width="40" height="30" as="geometry">
            <mxRectangle width="40" height="30" as="alternateBounds" />
          </mxGeometry>
        </mxCell>
        <mxCell id="hL4TjKniRrkw36ojrrID-68" value="Email" style="shape=partialRectangle;html=1;whiteSpace=wrap;connectable=0;fillColor=none;top=0;left=0;bottom=0;right=0;align=left;spacingLeft=6;overflow=hidden;strokeColor=inherit;fontSize=16;" parent="1" vertex="1">
          <mxGeometry x="228.07999999999998" y="1535" width="140" height="30" as="geometry">
            <mxRectangle width="140" height="30" as="alternateBounds" />
          </mxGeometry>
        </mxCell>
        <mxCell id="hL4TjKniRrkw36ojrrID-69" value="" style="shape=partialRectangle;html=1;whiteSpace=wrap;connectable=0;fillColor=none;top=0;left=0;bottom=0;right=0;overflow=hidden;strokeColor=inherit;fontSize=16;" parent="1" vertex="1">
          <mxGeometry x="188.07999999999998" y="1565" width="40" height="30" as="geometry">
            <mxRectangle width="40" height="30" as="alternateBounds" />
          </mxGeometry>
        </mxCell>
        <mxCell id="hL4TjKniRrkw36ojrrID-70" value="GioiTinh" style="shape=partialRectangle;html=1;whiteSpace=wrap;connectable=0;fillColor=none;top=0;left=0;bottom=0;right=0;align=left;spacingLeft=6;overflow=hidden;strokeColor=inherit;fontSize=16;" parent="1" vertex="1">
          <mxGeometry x="228.07999999999998" y="1565" width="140" height="30" as="geometry">
            <mxRectangle width="140" height="30" as="alternateBounds" />
          </mxGeometry>
        </mxCell>
        <mxCell id="hL4TjKniRrkw36ojrrID-71" value="" style="shape=partialRectangle;html=1;whiteSpace=wrap;connectable=0;fillColor=none;top=0;left=0;bottom=0;right=0;overflow=hidden;pointerEvents=1;strokeColor=inherit;fontSize=16;" parent="1" vertex="1">
          <mxGeometry x="188.07999999999998" y="1600" width="40" height="30" as="geometry">
            <mxRectangle width="40" height="30" as="alternateBounds" />
          </mxGeometry>
        </mxCell>
        <mxCell id="hL4TjKniRrkw36ojrrID-72" value="NgaySinh" style="shape=partialRectangle;html=1;whiteSpace=wrap;connectable=0;fillColor=none;top=0;left=0;bottom=0;right=0;align=left;spacingLeft=6;overflow=hidden;strokeColor=inherit;fontSize=16;" parent="1" vertex="1">
          <mxGeometry x="228.07999999999998" y="1600" width="140" height="30" as="geometry">
            <mxRectangle width="140" height="30" as="alternateBounds" />
          </mxGeometry>
        </mxCell>
        <mxCell id="hL4TjKniRrkw36ojrrID-73" value="" style="shape=partialRectangle;html=1;whiteSpace=wrap;connectable=0;fillColor=none;top=0;left=0;bottom=0;right=0;overflow=hidden;strokeColor=inherit;fontSize=16;" parent="1" vertex="1">
          <mxGeometry x="188.07999999999998" y="1630" width="40" height="30" as="geometry">
            <mxRectangle width="40" height="30" as="alternateBounds" />
          </mxGeometry>
        </mxCell>
        <mxCell id="hL4TjKniRrkw36ojrrID-74" value="DiaChi" style="shape=partialRectangle;html=1;whiteSpace=wrap;connectable=0;fillColor=none;top=0;left=0;bottom=0;right=0;align=left;spacingLeft=6;overflow=hidden;strokeColor=inherit;fontSize=16;" parent="1" vertex="1">
          <mxGeometry x="228.07999999999998" y="1630" width="140" height="30" as="geometry">
            <mxRectangle width="140" height="30" as="alternateBounds" />
          </mxGeometry>
        </mxCell>
        <mxCell id="hL4TjKniRrkw36ojrrID-77" value="" style="endArrow=none;html=1;rounded=0;entryX=0.222;entryY=0.067;entryDx=0;entryDy=0;entryPerimeter=0;" parent="1" target="hL4TjKniRrkw36ojrrID-50" edge="1">
          <mxGeometry width="50" height="50" relative="1" as="geometry">
            <mxPoint x="228" y="1670" as="sourcePoint" />
            <mxPoint x="268.08" y="1465" as="targetPoint" />
          </mxGeometry>
        </mxCell>
        <mxCell id="hL4TjKniRrkw36ojrrID-80" value="Vouncher" style="shape=table;startSize=30;container=1;collapsible=0;childLayout=tableLayout;fixedRows=1;rowLines=0;fontStyle=0;strokeColor=default;fontSize=16;" parent="1" vertex="1">
          <mxGeometry x="1430" y="817.5" width="170" height="270" as="geometry" />
        </mxCell>
        <mxCell id="hL4TjKniRrkw36ojrrID-81" value="" style="shape=tableRow;horizontal=0;startSize=0;swimlaneHead=0;swimlaneBody=0;top=0;left=0;bottom=0;right=0;collapsible=0;dropTarget=0;fillColor=none;points=[[0,0.5],[1,0.5]];portConstraint=eastwest;strokeColor=inherit;fontSize=16;" parent="hL4TjKniRrkw36ojrrID-80" vertex="1">
          <mxGeometry y="30" width="170" height="30" as="geometry" />
        </mxCell>
        <mxCell id="hL4TjKniRrkw36ojrrID-82" value="&lt;b&gt;PK&lt;/b&gt;" style="shape=partialRectangle;html=1;whiteSpace=wrap;connectable=0;fillColor=none;top=0;left=0;bottom=0;right=0;overflow=hidden;pointerEvents=1;strokeColor=inherit;fontSize=16;" parent="hL4TjKniRrkw36ojrrID-81" vertex="1">
          <mxGeometry width="38" height="30" as="geometry">
            <mxRectangle width="38" height="30" as="alternateBounds" />
          </mxGeometry>
        </mxCell>
        <mxCell id="hL4TjKniRrkw36ojrrID-83" value="&lt;u&gt;&lt;b&gt;Id&lt;/b&gt;&lt;/u&gt;" style="shape=partialRectangle;html=1;whiteSpace=wrap;connectable=0;fillColor=none;top=0;left=0;bottom=0;right=0;align=left;spacingLeft=6;overflow=hidden;strokeColor=inherit;fontSize=16;" parent="hL4TjKniRrkw36ojrrID-81" vertex="1">
          <mxGeometry x="38" width="132" height="30" as="geometry">
            <mxRectangle width="132" height="30" as="alternateBounds" />
          </mxGeometry>
        </mxCell>
        <mxCell id="hL4TjKniRrkw36ojrrID-84" value="" style="shape=tableRow;horizontal=0;startSize=0;swimlaneHead=0;swimlaneBody=0;top=0;left=0;bottom=0;right=0;collapsible=0;dropTarget=0;fillColor=none;points=[[0,0.5],[1,0.5]];portConstraint=eastwest;strokeColor=inherit;fontSize=16;" parent="hL4TjKniRrkw36ojrrID-80" vertex="1">
          <mxGeometry y="60" width="170" height="30" as="geometry" />
        </mxCell>
        <mxCell id="hL4TjKniRrkw36ojrrID-85" value="" style="shape=partialRectangle;html=1;whiteSpace=wrap;connectable=0;fillColor=none;top=0;left=0;bottom=0;right=0;overflow=hidden;strokeColor=inherit;fontSize=16;" parent="hL4TjKniRrkw36ojrrID-84" vertex="1">
          <mxGeometry width="38" height="30" as="geometry">
            <mxRectangle width="38" height="30" as="alternateBounds" />
          </mxGeometry>
        </mxCell>
        <mxCell id="hL4TjKniRrkw36ojrrID-86" value="Ma" style="shape=partialRectangle;html=1;whiteSpace=wrap;connectable=0;fillColor=none;top=0;left=0;bottom=0;right=0;align=left;spacingLeft=6;overflow=hidden;strokeColor=inherit;fontSize=16;" parent="hL4TjKniRrkw36ojrrID-84" vertex="1">
          <mxGeometry x="38" width="132" height="30" as="geometry">
            <mxRectangle width="132" height="30" as="alternateBounds" />
          </mxGeometry>
        </mxCell>
        <mxCell id="hL4TjKniRrkw36ojrrID-87" value="" style="shape=tableRow;horizontal=0;startSize=0;swimlaneHead=0;swimlaneBody=0;top=0;left=0;bottom=0;right=0;collapsible=0;dropTarget=0;fillColor=none;points=[[0,0.5],[1,0.5]];portConstraint=eastwest;strokeColor=inherit;fontSize=16;" parent="hL4TjKniRrkw36ojrrID-80" vertex="1">
          <mxGeometry y="90" width="170" height="30" as="geometry" />
        </mxCell>
        <mxCell id="hL4TjKniRrkw36ojrrID-88" value="" style="shape=partialRectangle;html=1;whiteSpace=wrap;connectable=0;fillColor=none;top=0;left=0;bottom=0;right=0;overflow=hidden;strokeColor=inherit;fontSize=16;" parent="hL4TjKniRrkw36ojrrID-87" vertex="1">
          <mxGeometry width="38" height="30" as="geometry">
            <mxRectangle width="38" height="30" as="alternateBounds" />
          </mxGeometry>
        </mxCell>
        <mxCell id="hL4TjKniRrkw36ojrrID-89" value="Ten" style="shape=partialRectangle;html=1;whiteSpace=wrap;connectable=0;fillColor=none;top=0;left=0;bottom=0;right=0;align=left;spacingLeft=6;overflow=hidden;strokeColor=inherit;fontSize=16;" parent="hL4TjKniRrkw36ojrrID-87" vertex="1">
          <mxGeometry x="38" width="132" height="30" as="geometry">
            <mxRectangle width="132" height="30" as="alternateBounds" />
          </mxGeometry>
        </mxCell>
        <mxCell id="hL4TjKniRrkw36ojrrID-100" value="" style="endArrow=none;html=1;rounded=0;entryX=1.007;entryY=-0.004;entryDx=0;entryDy=0;entryPerimeter=0;exitX=0.004;exitY=-0.004;exitDx=0;exitDy=0;exitPerimeter=0;" parent="hL4TjKniRrkw36ojrrID-80" source="hL4TjKniRrkw36ojrrID-84" target="hL4TjKniRrkw36ojrrID-84" edge="1">
          <mxGeometry width="50" height="50" relative="1" as="geometry">
            <mxPoint x="-40" y="30" as="sourcePoint" />
            <mxPoint x="10" y="-20" as="targetPoint" />
          </mxGeometry>
        </mxCell>
        <mxCell id="hL4TjKniRrkw36ojrrID-90" value="" style="shape=partialRectangle;html=1;whiteSpace=wrap;connectable=0;fillColor=none;top=0;left=0;bottom=0;right=0;overflow=hidden;strokeColor=inherit;fontSize=16;" parent="1" vertex="1">
          <mxGeometry x="1360" y="1035" width="40" height="30" as="geometry">
            <mxRectangle width="40" height="30" as="alternateBounds" />
          </mxGeometry>
        </mxCell>
        <mxCell id="hL4TjKniRrkw36ojrrID-91" value="GiamGia" style="shape=partialRectangle;html=1;whiteSpace=wrap;connectable=0;fillColor=none;top=0;left=0;bottom=0;right=0;align=left;spacingLeft=6;overflow=hidden;strokeColor=inherit;fontSize=16;" parent="1" vertex="1">
          <mxGeometry x="1470" y="937.5" width="140" height="30" as="geometry">
            <mxRectangle width="140" height="30" as="alternateBounds" />
          </mxGeometry>
        </mxCell>
        <mxCell id="hL4TjKniRrkw36ojrrID-92" value="" style="shape=partialRectangle;html=1;whiteSpace=wrap;connectable=0;fillColor=none;top=0;left=0;bottom=0;right=0;overflow=hidden;strokeColor=inherit;fontSize=16;" parent="1" vertex="1">
          <mxGeometry x="1360" y="1065" width="40" height="30" as="geometry">
            <mxRectangle width="40" height="30" as="alternateBounds" />
          </mxGeometry>
        </mxCell>
        <mxCell id="hL4TjKniRrkw36ojrrID-93" value="NgayBatDau" style="shape=partialRectangle;html=1;whiteSpace=wrap;connectable=0;fillColor=none;top=0;left=0;bottom=0;right=0;align=left;spacingLeft=6;overflow=hidden;strokeColor=inherit;fontSize=16;" parent="1" vertex="1">
          <mxGeometry x="1470" y="967.5" width="140" height="30" as="geometry">
            <mxRectangle width="140" height="30" as="alternateBounds" />
          </mxGeometry>
        </mxCell>
        <mxCell id="hL4TjKniRrkw36ojrrID-94" value="" style="shape=partialRectangle;html=1;whiteSpace=wrap;connectable=0;fillColor=none;top=0;left=0;bottom=0;right=0;overflow=hidden;strokeColor=inherit;fontSize=16;" parent="1" vertex="1">
          <mxGeometry x="1360" y="1095" width="40" height="30" as="geometry">
            <mxRectangle width="40" height="30" as="alternateBounds" />
          </mxGeometry>
        </mxCell>
        <mxCell id="hL4TjKniRrkw36ojrrID-95" value="NgayHetHan" style="shape=partialRectangle;html=1;whiteSpace=wrap;connectable=0;fillColor=none;top=0;left=0;bottom=0;right=0;align=left;spacingLeft=6;overflow=hidden;strokeColor=inherit;fontSize=16;" parent="1" vertex="1">
          <mxGeometry x="1470" y="997.5" width="140" height="30" as="geometry">
            <mxRectangle width="140" height="30" as="alternateBounds" />
          </mxGeometry>
        </mxCell>
        <mxCell id="hL4TjKniRrkw36ojrrID-96" value="" style="shape=partialRectangle;html=1;whiteSpace=wrap;connectable=0;fillColor=none;top=0;left=0;bottom=0;right=0;overflow=hidden;strokeColor=inherit;fontSize=16;" parent="1" vertex="1">
          <mxGeometry x="1360" y="1125" width="40" height="30" as="geometry">
            <mxRectangle width="40" height="30" as="alternateBounds" />
          </mxGeometry>
        </mxCell>
        <mxCell id="hL4TjKniRrkw36ojrrID-97" value="GhiChu" style="shape=partialRectangle;html=1;whiteSpace=wrap;connectable=0;fillColor=none;top=0;left=0;bottom=0;right=0;align=left;spacingLeft=6;overflow=hidden;strokeColor=inherit;fontSize=16;" parent="1" vertex="1">
          <mxGeometry x="1470" y="1027.5" width="140" height="30" as="geometry">
            <mxRectangle width="140" height="30" as="alternateBounds" />
          </mxGeometry>
        </mxCell>
        <mxCell id="hL4TjKniRrkw36ojrrID-98" value="" style="shape=partialRectangle;html=1;whiteSpace=wrap;connectable=0;fillColor=none;top=0;left=0;bottom=0;right=0;overflow=hidden;strokeColor=inherit;fontSize=16;" parent="1" vertex="1">
          <mxGeometry x="1360" y="1155" width="40" height="30" as="geometry">
            <mxRectangle width="40" height="30" as="alternateBounds" />
          </mxGeometry>
        </mxCell>
        <mxCell id="hL4TjKniRrkw36ojrrID-99" value="TrangThai" style="shape=partialRectangle;html=1;whiteSpace=wrap;connectable=0;fillColor=none;top=0;left=0;bottom=0;right=0;align=left;spacingLeft=6;overflow=hidden;strokeColor=inherit;fontSize=16;" parent="1" vertex="1">
          <mxGeometry x="1470" y="1057.5" width="140" height="30" as="geometry">
            <mxRectangle width="140" height="30" as="alternateBounds" />
          </mxGeometry>
        </mxCell>
        <mxCell id="hL4TjKniRrkw36ojrrID-102" value="Hóa Đơn CT" style="shape=table;startSize=30;container=1;collapsible=0;childLayout=tableLayout;fixedRows=1;rowLines=0;fontStyle=0;strokeColor=default;fontSize=16;" parent="1" vertex="1">
          <mxGeometry x="432.96" y="1130" width="180" height="150" as="geometry" />
        </mxCell>
        <mxCell id="hL4TjKniRrkw36ojrrID-103" value="" style="shape=tableRow;horizontal=0;startSize=0;swimlaneHead=0;swimlaneBody=0;top=0;left=0;bottom=0;right=0;collapsible=0;dropTarget=0;fillColor=none;points=[[0,0.5],[1,0.5]];portConstraint=eastwest;strokeColor=inherit;fontSize=16;" parent="hL4TjKniRrkw36ojrrID-102" vertex="1">
          <mxGeometry y="30" width="180" height="30" as="geometry" />
        </mxCell>
        <mxCell id="hL4TjKniRrkw36ojrrID-104" value="PK" style="shape=partialRectangle;html=1;whiteSpace=wrap;connectable=0;fillColor=none;top=0;left=0;bottom=0;right=0;overflow=hidden;pointerEvents=1;strokeColor=inherit;fontSize=16;" parent="hL4TjKniRrkw36ojrrID-103" vertex="1">
          <mxGeometry width="40" height="30" as="geometry">
            <mxRectangle width="40" height="30" as="alternateBounds" />
          </mxGeometry>
        </mxCell>
        <mxCell id="hL4TjKniRrkw36ojrrID-105" value="&lt;u&gt;&lt;b&gt;Id&lt;/b&gt;&lt;/u&gt;" style="shape=partialRectangle;html=1;whiteSpace=wrap;connectable=0;fillColor=none;top=0;left=0;bottom=0;right=0;align=left;spacingLeft=6;overflow=hidden;strokeColor=inherit;fontSize=16;" parent="hL4TjKniRrkw36ojrrID-103" vertex="1">
          <mxGeometry x="40" width="140" height="30" as="geometry">
            <mxRectangle width="140" height="30" as="alternateBounds" />
          </mxGeometry>
        </mxCell>
        <mxCell id="hL4TjKniRrkw36ojrrID-106" value="" style="shape=tableRow;horizontal=0;startSize=0;swimlaneHead=0;swimlaneBody=0;top=0;left=0;bottom=0;right=0;collapsible=0;dropTarget=0;fillColor=none;points=[[0,0.5],[1,0.5]];portConstraint=eastwest;strokeColor=inherit;fontSize=16;" parent="hL4TjKniRrkw36ojrrID-102" vertex="1">
          <mxGeometry y="60" width="180" height="30" as="geometry" />
        </mxCell>
        <mxCell id="hL4TjKniRrkw36ojrrID-107" value="FK" style="shape=partialRectangle;html=1;whiteSpace=wrap;connectable=0;fillColor=none;top=0;left=0;bottom=0;right=0;overflow=hidden;strokeColor=inherit;fontSize=16;" parent="hL4TjKniRrkw36ojrrID-106" vertex="1">
          <mxGeometry width="40" height="30" as="geometry">
            <mxRectangle width="40" height="30" as="alternateBounds" />
          </mxGeometry>
        </mxCell>
        <mxCell id="hL4TjKniRrkw36ojrrID-108" value="IdHoaDon" style="shape=partialRectangle;html=1;whiteSpace=wrap;connectable=0;fillColor=none;top=0;left=0;bottom=0;right=0;align=left;spacingLeft=6;overflow=hidden;strokeColor=inherit;fontSize=16;" parent="hL4TjKniRrkw36ojrrID-106" vertex="1">
          <mxGeometry x="40" width="140" height="30" as="geometry">
            <mxRectangle width="140" height="30" as="alternateBounds" />
          </mxGeometry>
        </mxCell>
        <mxCell id="hL4TjKniRrkw36ojrrID-109" value="" style="shape=tableRow;horizontal=0;startSize=0;swimlaneHead=0;swimlaneBody=0;top=0;left=0;bottom=0;right=0;collapsible=0;dropTarget=0;fillColor=none;points=[[0,0.5],[1,0.5]];portConstraint=eastwest;strokeColor=inherit;fontSize=16;" parent="hL4TjKniRrkw36ojrrID-102" vertex="1">
          <mxGeometry y="90" width="180" height="30" as="geometry" />
        </mxCell>
        <mxCell id="hL4TjKniRrkw36ojrrID-110" value="" style="shape=partialRectangle;html=1;whiteSpace=wrap;connectable=0;fillColor=none;top=0;left=0;bottom=0;right=0;overflow=hidden;strokeColor=inherit;fontSize=16;" parent="hL4TjKniRrkw36ojrrID-109" vertex="1">
          <mxGeometry width="40" height="30" as="geometry">
            <mxRectangle width="40" height="30" as="alternateBounds" />
          </mxGeometry>
        </mxCell>
        <mxCell id="hL4TjKniRrkw36ojrrID-111" value="SoLuong" style="shape=partialRectangle;html=1;whiteSpace=wrap;connectable=0;fillColor=none;top=0;left=0;bottom=0;right=0;align=left;spacingLeft=6;overflow=hidden;strokeColor=inherit;fontSize=16;" parent="hL4TjKniRrkw36ojrrID-109" vertex="1">
          <mxGeometry x="40" width="140" height="30" as="geometry">
            <mxRectangle width="140" height="30" as="alternateBounds" />
          </mxGeometry>
        </mxCell>
        <mxCell id="hL4TjKniRrkw36ojrrID-112" value="" style="shape=partialRectangle;html=1;whiteSpace=wrap;connectable=0;fillColor=none;top=0;left=0;bottom=0;right=0;overflow=hidden;strokeColor=inherit;fontSize=16;" parent="1" vertex="1">
          <mxGeometry x="432.96" y="1250" width="40" height="30" as="geometry">
            <mxRectangle width="40" height="30" as="alternateBounds" />
          </mxGeometry>
        </mxCell>
        <mxCell id="hL4TjKniRrkw36ojrrID-113" value="DonGia" style="shape=partialRectangle;html=1;whiteSpace=wrap;connectable=0;fillColor=none;top=0;left=0;bottom=0;right=0;align=left;spacingLeft=6;overflow=hidden;strokeColor=inherit;fontSize=16;" parent="1" vertex="1">
          <mxGeometry x="472.96" y="1250" width="140" height="30" as="geometry">
            <mxRectangle width="140" height="30" as="alternateBounds" />
          </mxGeometry>
        </mxCell>
        <mxCell id="EZ0jNG4qYMRLLxR_Fzao-11" value="SanPham" style="shape=table;startSize=30;container=1;collapsible=0;childLayout=tableLayout;fixedRows=1;rowLines=0;fontStyle=0;strokeColor=default;fontSize=16;" parent="1" vertex="1">
          <mxGeometry x="723" y="700" width="177.92" height="380" as="geometry" />
        </mxCell>
        <mxCell id="EZ0jNG4qYMRLLxR_Fzao-12" value="" style="shape=tableRow;horizontal=0;startSize=0;swimlaneHead=0;swimlaneBody=0;top=0;left=0;bottom=0;right=0;collapsible=0;dropTarget=0;fillColor=none;points=[[0,0.5],[1,0.5]];portConstraint=eastwest;strokeColor=inherit;fontSize=16;" parent="EZ0jNG4qYMRLLxR_Fzao-11" vertex="1">
          <mxGeometry y="30" width="177.92" height="30" as="geometry" />
        </mxCell>
        <mxCell id="EZ0jNG4qYMRLLxR_Fzao-13" value="&lt;b&gt;PK&lt;/b&gt;" style="shape=partialRectangle;html=1;whiteSpace=wrap;connectable=0;fillColor=none;top=0;left=0;bottom=0;right=0;overflow=hidden;pointerEvents=1;strokeColor=inherit;fontSize=16;" parent="EZ0jNG4qYMRLLxR_Fzao-12" vertex="1">
          <mxGeometry width="40" height="30" as="geometry">
            <mxRectangle width="40" height="30" as="alternateBounds" />
          </mxGeometry>
        </mxCell>
        <mxCell id="EZ0jNG4qYMRLLxR_Fzao-14" value="&lt;b&gt;Id&lt;/b&gt;" style="shape=partialRectangle;html=1;whiteSpace=wrap;connectable=0;fillColor=none;top=0;left=0;bottom=0;right=0;align=left;spacingLeft=6;overflow=hidden;strokeColor=inherit;fontSize=16;" parent="EZ0jNG4qYMRLLxR_Fzao-12" vertex="1">
          <mxGeometry x="40" width="138" height="30" as="geometry">
            <mxRectangle width="138" height="30" as="alternateBounds" />
          </mxGeometry>
        </mxCell>
        <mxCell id="EZ0jNG4qYMRLLxR_Fzao-15" value="" style="shape=tableRow;horizontal=0;startSize=0;swimlaneHead=0;swimlaneBody=0;top=0;left=0;bottom=0;right=0;collapsible=0;dropTarget=0;fillColor=none;points=[[0,0.5],[1,0.5]];portConstraint=eastwest;strokeColor=inherit;fontSize=16;" parent="EZ0jNG4qYMRLLxR_Fzao-11" vertex="1">
          <mxGeometry y="60" width="177.92" height="30" as="geometry" />
        </mxCell>
        <mxCell id="EZ0jNG4qYMRLLxR_Fzao-16" value="FK" style="shape=partialRectangle;html=1;whiteSpace=wrap;connectable=0;fillColor=none;top=0;left=0;bottom=0;right=0;overflow=hidden;strokeColor=inherit;fontSize=16;" parent="EZ0jNG4qYMRLLxR_Fzao-15" vertex="1">
          <mxGeometry width="40" height="30" as="geometry">
            <mxRectangle width="40" height="30" as="alternateBounds" />
          </mxGeometry>
        </mxCell>
        <mxCell id="EZ0jNG4qYMRLLxR_Fzao-17" value="IdChiTietSP" style="shape=partialRectangle;html=1;whiteSpace=wrap;connectable=0;fillColor=none;top=0;left=0;bottom=0;right=0;align=left;spacingLeft=6;overflow=hidden;strokeColor=inherit;fontSize=16;" parent="EZ0jNG4qYMRLLxR_Fzao-15" vertex="1">
          <mxGeometry x="40" width="138" height="30" as="geometry">
            <mxRectangle width="138" height="30" as="alternateBounds" />
          </mxGeometry>
        </mxCell>
        <mxCell id="EZ0jNG4qYMRLLxR_Fzao-18" value="" style="shape=tableRow;horizontal=0;startSize=0;swimlaneHead=0;swimlaneBody=0;top=0;left=0;bottom=0;right=0;collapsible=0;dropTarget=0;fillColor=none;points=[[0,0.5],[1,0.5]];portConstraint=eastwest;strokeColor=inherit;fontSize=16;" parent="EZ0jNG4qYMRLLxR_Fzao-11" vertex="1">
          <mxGeometry y="90" width="177.92" height="30" as="geometry" />
        </mxCell>
        <mxCell id="EZ0jNG4qYMRLLxR_Fzao-19" value="" style="shape=partialRectangle;html=1;whiteSpace=wrap;connectable=0;fillColor=none;top=0;left=0;bottom=0;right=0;overflow=hidden;strokeColor=inherit;fontSize=16;" parent="EZ0jNG4qYMRLLxR_Fzao-18" vertex="1">
          <mxGeometry width="40" height="30" as="geometry">
            <mxRectangle width="40" height="30" as="alternateBounds" />
          </mxGeometry>
        </mxCell>
        <mxCell id="EZ0jNG4qYMRLLxR_Fzao-20" value="NgayNhapHang" style="shape=partialRectangle;html=1;whiteSpace=wrap;connectable=0;fillColor=none;top=0;left=0;bottom=0;right=0;align=left;spacingLeft=6;overflow=hidden;strokeColor=inherit;fontSize=16;" parent="EZ0jNG4qYMRLLxR_Fzao-18" vertex="1">
          <mxGeometry x="40" width="138" height="30" as="geometry">
            <mxRectangle width="138" height="30" as="alternateBounds" />
          </mxGeometry>
        </mxCell>
        <mxCell id="EZ0jNG4qYMRLLxR_Fzao-22" value="" style="shape=partialRectangle;html=1;whiteSpace=wrap;connectable=0;fillColor=none;top=0;left=0;bottom=0;right=0;overflow=hidden;pointerEvents=1;strokeColor=inherit;fontSize=16;" parent="1" vertex="1">
          <mxGeometry x="723" y="930" width="40" height="30" as="geometry">
            <mxRectangle width="40" height="30" as="alternateBounds" />
          </mxGeometry>
        </mxCell>
        <mxCell id="EZ0jNG4qYMRLLxR_Fzao-23" value="DonGia" style="shape=partialRectangle;html=1;whiteSpace=wrap;connectable=0;fillColor=none;top=0;left=0;bottom=0;right=0;align=left;spacingLeft=6;overflow=hidden;strokeColor=inherit;fontSize=16;" parent="1" vertex="1">
          <mxGeometry x="763" y="930" width="140" height="30" as="geometry">
            <mxRectangle width="140" height="30" as="alternateBounds" />
          </mxGeometry>
        </mxCell>
        <mxCell id="EZ0jNG4qYMRLLxR_Fzao-24" value="" style="shape=partialRectangle;html=1;whiteSpace=wrap;connectable=0;fillColor=none;top=0;left=0;bottom=0;right=0;overflow=hidden;strokeColor=inherit;fontSize=16;" parent="1" vertex="1">
          <mxGeometry x="723" y="960" width="40" height="30" as="geometry">
            <mxRectangle width="40" height="30" as="alternateBounds" />
          </mxGeometry>
        </mxCell>
        <mxCell id="EZ0jNG4qYMRLLxR_Fzao-25" value="SoLuong" style="shape=partialRectangle;html=1;whiteSpace=wrap;connectable=0;fillColor=none;top=0;left=0;bottom=0;right=0;align=left;spacingLeft=6;overflow=hidden;strokeColor=inherit;fontSize=16;" parent="1" vertex="1">
          <mxGeometry x="763" y="960" width="140" height="30" as="geometry">
            <mxRectangle width="140" height="30" as="alternateBounds" />
          </mxGeometry>
        </mxCell>
        <mxCell id="EZ0jNG4qYMRLLxR_Fzao-26" value="" style="shape=partialRectangle;html=1;whiteSpace=wrap;connectable=0;fillColor=none;top=0;left=0;bottom=0;right=0;overflow=hidden;strokeColor=inherit;fontSize=16;" parent="1" vertex="1">
          <mxGeometry x="723" y="990" width="40" height="30" as="geometry">
            <mxRectangle width="40" height="30" as="alternateBounds" />
          </mxGeometry>
        </mxCell>
        <mxCell id="EZ0jNG4qYMRLLxR_Fzao-27" value="XuatXu" style="shape=partialRectangle;html=1;whiteSpace=wrap;connectable=0;fillColor=none;top=0;left=0;bottom=0;right=0;align=left;spacingLeft=6;overflow=hidden;strokeColor=inherit;fontSize=16;" parent="1" vertex="1">
          <mxGeometry x="763" y="990" width="140" height="30" as="geometry">
            <mxRectangle width="140" height="30" as="alternateBounds" />
          </mxGeometry>
        </mxCell>
        <mxCell id="EZ0jNG4qYMRLLxR_Fzao-28" value="" style="shape=partialRectangle;html=1;whiteSpace=wrap;connectable=0;fillColor=none;top=0;left=0;bottom=0;right=0;overflow=hidden;pointerEvents=1;strokeColor=inherit;fontSize=16;" parent="1" vertex="1">
          <mxGeometry x="723" y="1020" width="40" height="30" as="geometry">
            <mxRectangle width="40" height="30" as="alternateBounds" />
          </mxGeometry>
        </mxCell>
        <mxCell id="EZ0jNG4qYMRLLxR_Fzao-29" value="KichCo" style="shape=partialRectangle;html=1;whiteSpace=wrap;connectable=0;fillColor=none;top=0;left=0;bottom=0;right=0;align=left;spacingLeft=6;overflow=hidden;strokeColor=inherit;fontSize=16;" parent="1" vertex="1">
          <mxGeometry x="763" y="1020" width="140" height="30" as="geometry">
            <mxRectangle width="140" height="30" as="alternateBounds" />
          </mxGeometry>
        </mxCell>
        <mxCell id="EZ0jNG4qYMRLLxR_Fzao-30" value="" style="shape=partialRectangle;html=1;whiteSpace=wrap;connectable=0;fillColor=none;top=0;left=0;bottom=0;right=0;overflow=hidden;strokeColor=inherit;fontSize=16;" parent="1" vertex="1">
          <mxGeometry x="723" y="1050" width="40" height="30" as="geometry">
            <mxRectangle width="40" height="30" as="alternateBounds" />
          </mxGeometry>
        </mxCell>
        <mxCell id="EZ0jNG4qYMRLLxR_Fzao-31" value="TrangThai" style="shape=partialRectangle;html=1;whiteSpace=wrap;connectable=0;fillColor=none;top=0;left=0;bottom=0;right=0;align=left;spacingLeft=6;overflow=hidden;strokeColor=inherit;fontSize=16;" parent="1" vertex="1">
          <mxGeometry x="763" y="1050" width="140" height="30" as="geometry">
            <mxRectangle width="140" height="30" as="alternateBounds" />
          </mxGeometry>
        </mxCell>
        <mxCell id="EZ0jNG4qYMRLLxR_Fzao-34" value="FK" style="shape=partialRectangle;html=1;whiteSpace=wrap;connectable=0;fillColor=none;top=0;left=0;bottom=0;right=0;overflow=hidden;strokeColor=inherit;fontSize=16;" parent="1" vertex="1">
          <mxGeometry x="716.0400000000001" y="480" width="40" height="30" as="geometry">
            <mxRectangle width="40" height="30" as="alternateBounds" />
          </mxGeometry>
        </mxCell>
        <mxCell id="EZ0jNG4qYMRLLxR_Fzao-35" value="IdMauSP" style="shape=partialRectangle;html=1;whiteSpace=wrap;connectable=0;fillColor=none;top=0;left=0;bottom=0;right=0;align=left;spacingLeft=6;overflow=hidden;strokeColor=inherit;fontSize=16;" parent="1" vertex="1">
          <mxGeometry x="756.0400000000001" y="480" width="140" height="30" as="geometry">
            <mxRectangle width="140" height="30" as="alternateBounds" />
          </mxGeometry>
        </mxCell>
        <mxCell id="EZ0jNG4qYMRLLxR_Fzao-45" value="" style="endArrow=none;html=1;rounded=0;entryX=0.5;entryY=1;entryDx=0;entryDy=0;exitX=0.5;exitY=0;exitDx=0;exitDy=0;" parent="1" source="EZ0jNG4qYMRLLxR_Fzao-11" target="2nLP9KUXU7uZTx3rWCLJ-117" edge="1">
          <mxGeometry width="50" height="50" relative="1" as="geometry">
            <mxPoint x="530" y="590" as="sourcePoint" />
            <mxPoint x="736" y="770" as="targetPoint" />
          </mxGeometry>
        </mxCell>
        <mxCell id="EZ0jNG4qYMRLLxR_Fzao-46" value="DeGiay" style="shape=table;startSize=30;container=1;collapsible=0;childLayout=tableLayout;fixedRows=1;rowLines=0;fontStyle=0;strokeColor=default;fontSize=16;" parent="1" vertex="1">
          <mxGeometry x="438.08" y="740" width="180" height="90" as="geometry" />
        </mxCell>
        <mxCell id="EZ0jNG4qYMRLLxR_Fzao-47" value="" style="shape=tableRow;horizontal=0;startSize=0;swimlaneHead=0;swimlaneBody=0;top=0;left=0;bottom=0;right=0;collapsible=0;dropTarget=0;fillColor=none;points=[[0,0.5],[1,0.5]];portConstraint=eastwest;strokeColor=inherit;fontSize=16;" parent="EZ0jNG4qYMRLLxR_Fzao-46" vertex="1">
          <mxGeometry y="30" width="180" height="30" as="geometry" />
        </mxCell>
        <mxCell id="EZ0jNG4qYMRLLxR_Fzao-48" value="&lt;b&gt;PK&lt;/b&gt;" style="shape=partialRectangle;html=1;whiteSpace=wrap;connectable=0;fillColor=none;top=0;left=0;bottom=0;right=0;overflow=hidden;pointerEvents=1;strokeColor=inherit;fontSize=16;" parent="EZ0jNG4qYMRLLxR_Fzao-47" vertex="1">
          <mxGeometry width="40" height="30" as="geometry">
            <mxRectangle width="40" height="30" as="alternateBounds" />
          </mxGeometry>
        </mxCell>
        <mxCell id="EZ0jNG4qYMRLLxR_Fzao-49" value="&lt;b&gt;Id&lt;/b&gt;" style="shape=partialRectangle;html=1;whiteSpace=wrap;connectable=0;fillColor=none;top=0;left=0;bottom=0;right=0;align=left;spacingLeft=6;overflow=hidden;strokeColor=inherit;fontSize=16;" parent="EZ0jNG4qYMRLLxR_Fzao-47" vertex="1">
          <mxGeometry x="40" width="140" height="30" as="geometry">
            <mxRectangle width="140" height="30" as="alternateBounds" />
          </mxGeometry>
        </mxCell>
        <mxCell id="EZ0jNG4qYMRLLxR_Fzao-53" value="" style="shape=tableRow;horizontal=0;startSize=0;swimlaneHead=0;swimlaneBody=0;top=0;left=0;bottom=0;right=0;collapsible=0;dropTarget=0;fillColor=none;points=[[0,0.5],[1,0.5]];portConstraint=eastwest;strokeColor=inherit;fontSize=16;" parent="EZ0jNG4qYMRLLxR_Fzao-46" vertex="1">
          <mxGeometry y="60" width="180" height="30" as="geometry" />
        </mxCell>
        <mxCell id="EZ0jNG4qYMRLLxR_Fzao-54" value="" style="shape=partialRectangle;html=1;whiteSpace=wrap;connectable=0;fillColor=none;top=0;left=0;bottom=0;right=0;overflow=hidden;strokeColor=inherit;fontSize=16;" parent="EZ0jNG4qYMRLLxR_Fzao-53" vertex="1">
          <mxGeometry width="40" height="30" as="geometry">
            <mxRectangle width="40" height="30" as="alternateBounds" />
          </mxGeometry>
        </mxCell>
        <mxCell id="EZ0jNG4qYMRLLxR_Fzao-55" value="ChatLieu" style="shape=partialRectangle;html=1;whiteSpace=wrap;connectable=0;fillColor=none;top=0;left=0;bottom=0;right=0;align=left;spacingLeft=6;overflow=hidden;strokeColor=inherit;fontSize=16;" parent="EZ0jNG4qYMRLLxR_Fzao-53" vertex="1">
          <mxGeometry x="40" width="140" height="30" as="geometry">
            <mxRectangle width="140" height="30" as="alternateBounds" />
          </mxGeometry>
        </mxCell>
        <mxCell id="EZ0jNG4qYMRLLxR_Fzao-56" value="DongSP" style="shape=table;startSize=30;container=1;collapsible=0;childLayout=tableLayout;fixedRows=1;rowLines=0;fontStyle=0;strokeColor=default;fontSize=16;" parent="1" vertex="1">
          <mxGeometry x="419.99999999999994" y="905" width="180" height="120" as="geometry" />
        </mxCell>
        <mxCell id="EZ0jNG4qYMRLLxR_Fzao-57" value="" style="shape=tableRow;horizontal=0;startSize=0;swimlaneHead=0;swimlaneBody=0;top=0;left=0;bottom=0;right=0;collapsible=0;dropTarget=0;fillColor=none;points=[[0,0.5],[1,0.5]];portConstraint=eastwest;strokeColor=inherit;fontSize=16;" parent="EZ0jNG4qYMRLLxR_Fzao-56" vertex="1">
          <mxGeometry y="30" width="180" height="30" as="geometry" />
        </mxCell>
        <mxCell id="EZ0jNG4qYMRLLxR_Fzao-58" value="&lt;b&gt;PK&lt;/b&gt;" style="shape=partialRectangle;html=1;whiteSpace=wrap;connectable=0;fillColor=none;top=0;left=0;bottom=0;right=0;overflow=hidden;pointerEvents=1;strokeColor=inherit;fontSize=16;" parent="EZ0jNG4qYMRLLxR_Fzao-57" vertex="1">
          <mxGeometry width="40" height="30" as="geometry">
            <mxRectangle width="40" height="30" as="alternateBounds" />
          </mxGeometry>
        </mxCell>
        <mxCell id="EZ0jNG4qYMRLLxR_Fzao-59" value="&lt;b&gt;Id&lt;/b&gt;" style="shape=partialRectangle;html=1;whiteSpace=wrap;connectable=0;fillColor=none;top=0;left=0;bottom=0;right=0;align=left;spacingLeft=6;overflow=hidden;strokeColor=inherit;fontSize=16;" parent="EZ0jNG4qYMRLLxR_Fzao-57" vertex="1">
          <mxGeometry x="40" width="140" height="30" as="geometry">
            <mxRectangle width="140" height="30" as="alternateBounds" />
          </mxGeometry>
        </mxCell>
        <mxCell id="EZ0jNG4qYMRLLxR_Fzao-60" value="" style="shape=tableRow;horizontal=0;startSize=0;swimlaneHead=0;swimlaneBody=0;top=0;left=0;bottom=0;right=0;collapsible=0;dropTarget=0;fillColor=none;points=[[0,0.5],[1,0.5]];portConstraint=eastwest;strokeColor=inherit;fontSize=16;" parent="EZ0jNG4qYMRLLxR_Fzao-56" vertex="1">
          <mxGeometry y="60" width="180" height="30" as="geometry" />
        </mxCell>
        <mxCell id="EZ0jNG4qYMRLLxR_Fzao-61" value="" style="shape=partialRectangle;html=1;whiteSpace=wrap;connectable=0;fillColor=none;top=0;left=0;bottom=0;right=0;overflow=hidden;strokeColor=inherit;fontSize=16;" parent="EZ0jNG4qYMRLLxR_Fzao-60" vertex="1">
          <mxGeometry width="40" height="30" as="geometry">
            <mxRectangle width="40" height="30" as="alternateBounds" />
          </mxGeometry>
        </mxCell>
        <mxCell id="EZ0jNG4qYMRLLxR_Fzao-62" value="Ma" style="shape=partialRectangle;html=1;whiteSpace=wrap;connectable=0;fillColor=none;top=0;left=0;bottom=0;right=0;align=left;spacingLeft=6;overflow=hidden;strokeColor=inherit;fontSize=16;" parent="EZ0jNG4qYMRLLxR_Fzao-60" vertex="1">
          <mxGeometry x="40" width="140" height="30" as="geometry">
            <mxRectangle width="140" height="30" as="alternateBounds" />
          </mxGeometry>
        </mxCell>
        <mxCell id="EZ0jNG4qYMRLLxR_Fzao-63" value="" style="shape=tableRow;horizontal=0;startSize=0;swimlaneHead=0;swimlaneBody=0;top=0;left=0;bottom=0;right=0;collapsible=0;dropTarget=0;fillColor=none;points=[[0,0.5],[1,0.5]];portConstraint=eastwest;strokeColor=inherit;fontSize=16;" parent="EZ0jNG4qYMRLLxR_Fzao-56" vertex="1">
          <mxGeometry y="90" width="180" height="30" as="geometry" />
        </mxCell>
        <mxCell id="EZ0jNG4qYMRLLxR_Fzao-64" value="" style="shape=partialRectangle;html=1;whiteSpace=wrap;connectable=0;fillColor=none;top=0;left=0;bottom=0;right=0;overflow=hidden;strokeColor=inherit;fontSize=16;" parent="EZ0jNG4qYMRLLxR_Fzao-63" vertex="1">
          <mxGeometry width="40" height="30" as="geometry">
            <mxRectangle width="40" height="30" as="alternateBounds" />
          </mxGeometry>
        </mxCell>
        <mxCell id="EZ0jNG4qYMRLLxR_Fzao-65" value="Ten" style="shape=partialRectangle;html=1;whiteSpace=wrap;connectable=0;fillColor=none;top=0;left=0;bottom=0;right=0;align=left;spacingLeft=6;overflow=hidden;strokeColor=inherit;fontSize=16;" parent="EZ0jNG4qYMRLLxR_Fzao-63" vertex="1">
          <mxGeometry x="40" width="140" height="30" as="geometry">
            <mxRectangle width="140" height="30" as="alternateBounds" />
          </mxGeometry>
        </mxCell>
        <mxCell id="EZ0jNG4qYMRLLxR_Fzao-70" value="MauSP" style="shape=table;startSize=30;container=1;collapsible=0;childLayout=tableLayout;fixedRows=1;rowLines=0;fontStyle=0;strokeColor=default;fontSize=16;" parent="1" vertex="1">
          <mxGeometry x="1010.96" y="425" width="180" height="130" as="geometry" />
        </mxCell>
        <mxCell id="EZ0jNG4qYMRLLxR_Fzao-71" value="" style="shape=tableRow;horizontal=0;startSize=0;swimlaneHead=0;swimlaneBody=0;top=0;left=0;bottom=0;right=0;collapsible=0;dropTarget=0;fillColor=none;points=[[0,0.5],[1,0.5]];portConstraint=eastwest;strokeColor=inherit;fontSize=16;" parent="EZ0jNG4qYMRLLxR_Fzao-70" vertex="1">
          <mxGeometry y="30" width="180" height="30" as="geometry" />
        </mxCell>
        <mxCell id="EZ0jNG4qYMRLLxR_Fzao-72" value="&lt;b&gt;PK&lt;/b&gt;" style="shape=partialRectangle;html=1;whiteSpace=wrap;connectable=0;fillColor=none;top=0;left=0;bottom=0;right=0;overflow=hidden;pointerEvents=1;strokeColor=inherit;fontSize=16;" parent="EZ0jNG4qYMRLLxR_Fzao-71" vertex="1">
          <mxGeometry width="40" height="30" as="geometry">
            <mxRectangle width="40" height="30" as="alternateBounds" />
          </mxGeometry>
        </mxCell>
        <mxCell id="EZ0jNG4qYMRLLxR_Fzao-73" value="Id" style="shape=partialRectangle;html=1;whiteSpace=wrap;connectable=0;fillColor=none;top=0;left=0;bottom=0;right=0;align=left;spacingLeft=6;overflow=hidden;strokeColor=inherit;fontSize=16;" parent="EZ0jNG4qYMRLLxR_Fzao-71" vertex="1">
          <mxGeometry x="40" width="140" height="30" as="geometry">
            <mxRectangle width="140" height="30" as="alternateBounds" />
          </mxGeometry>
        </mxCell>
        <mxCell id="EZ0jNG4qYMRLLxR_Fzao-74" value="" style="shape=tableRow;horizontal=0;startSize=0;swimlaneHead=0;swimlaneBody=0;top=0;left=0;bottom=0;right=0;collapsible=0;dropTarget=0;fillColor=none;points=[[0,0.5],[1,0.5]];portConstraint=eastwest;strokeColor=inherit;fontSize=16;" parent="EZ0jNG4qYMRLLxR_Fzao-70" vertex="1">
          <mxGeometry y="60" width="180" height="40" as="geometry" />
        </mxCell>
        <mxCell id="EZ0jNG4qYMRLLxR_Fzao-75" value="" style="shape=partialRectangle;html=1;whiteSpace=wrap;connectable=0;fillColor=none;top=0;left=0;bottom=0;right=0;overflow=hidden;strokeColor=inherit;fontSize=16;" parent="EZ0jNG4qYMRLLxR_Fzao-74" vertex="1">
          <mxGeometry width="40" height="40" as="geometry">
            <mxRectangle width="40" height="40" as="alternateBounds" />
          </mxGeometry>
        </mxCell>
        <mxCell id="EZ0jNG4qYMRLLxR_Fzao-76" value="Ma" style="shape=partialRectangle;html=1;whiteSpace=wrap;connectable=0;fillColor=none;top=0;left=0;bottom=0;right=0;align=left;spacingLeft=6;overflow=hidden;strokeColor=inherit;fontSize=16;" parent="EZ0jNG4qYMRLLxR_Fzao-74" vertex="1">
          <mxGeometry x="40" width="140" height="40" as="geometry">
            <mxRectangle width="140" height="40" as="alternateBounds" />
          </mxGeometry>
        </mxCell>
        <mxCell id="EZ0jNG4qYMRLLxR_Fzao-77" value="" style="shape=tableRow;horizontal=0;startSize=0;swimlaneHead=0;swimlaneBody=0;top=0;left=0;bottom=0;right=0;collapsible=0;dropTarget=0;fillColor=none;points=[[0,0.5],[1,0.5]];portConstraint=eastwest;strokeColor=inherit;fontSize=16;" parent="EZ0jNG4qYMRLLxR_Fzao-70" vertex="1">
          <mxGeometry y="100" width="180" height="30" as="geometry" />
        </mxCell>
        <mxCell id="EZ0jNG4qYMRLLxR_Fzao-78" value="" style="shape=partialRectangle;html=1;whiteSpace=wrap;connectable=0;fillColor=none;top=0;left=0;bottom=0;right=0;overflow=hidden;strokeColor=inherit;fontSize=16;" parent="EZ0jNG4qYMRLLxR_Fzao-77" vertex="1">
          <mxGeometry width="40" height="30" as="geometry">
            <mxRectangle width="40" height="30" as="alternateBounds" />
          </mxGeometry>
        </mxCell>
        <mxCell id="EZ0jNG4qYMRLLxR_Fzao-79" value="Mau" style="shape=partialRectangle;html=1;whiteSpace=wrap;connectable=0;fillColor=none;top=0;left=0;bottom=0;right=0;align=left;spacingLeft=6;overflow=hidden;strokeColor=inherit;fontSize=16;" parent="EZ0jNG4qYMRLLxR_Fzao-77" vertex="1">
          <mxGeometry x="40" width="140" height="30" as="geometry">
            <mxRectangle width="140" height="30" as="alternateBounds" />
          </mxGeometry>
        </mxCell>
        <mxCell id="EZ0jNG4qYMRLLxR_Fzao-80" value="" style="endArrow=none;html=1;rounded=0;exitX=0.5;exitY=0;exitDx=0;exitDy=0;entryX=0;entryY=0.5;entryDx=0;entryDy=0;" parent="1" source="EZ0jNG4qYMRLLxR_Fzao-56" target="EZ0jNG4qYMRLLxR_Fzao-18" edge="1">
          <mxGeometry width="50" height="50" relative="1" as="geometry">
            <mxPoint x="546" y="690" as="sourcePoint" />
            <mxPoint x="720" y="940" as="targetPoint" />
          </mxGeometry>
        </mxCell>
        <mxCell id="EZ0jNG4qYMRLLxR_Fzao-81" value="" style="endArrow=none;html=1;rounded=0;exitX=1;exitY=0.5;exitDx=0;exitDy=0;entryX=0;entryY=0.5;entryDx=0;entryDy=0;" parent="1" source="EZ0jNG4qYMRLLxR_Fzao-47" target="EZ0jNG4qYMRLLxR_Fzao-18" edge="1">
          <mxGeometry width="50" height="50" relative="1" as="geometry">
            <mxPoint x="496.7000000000003" y="666.6800000000003" as="sourcePoint" />
            <mxPoint x="676" y="580" as="targetPoint" />
          </mxGeometry>
        </mxCell>
        <mxCell id="EZ0jNG4qYMRLLxR_Fzao-82" value="" style="endArrow=none;html=1;rounded=0;entryX=0;entryY=0.5;entryDx=0;entryDy=0;" parent="1" target="EZ0jNG4qYMRLLxR_Fzao-71" edge="1">
          <mxGeometry width="50" height="50" relative="1" as="geometry">
            <mxPoint x="895.88" y="550" as="sourcePoint" />
            <mxPoint x="1005.88" y="520" as="targetPoint" />
          </mxGeometry>
        </mxCell>
        <mxCell id="EZ0jNG4qYMRLLxR_Fzao-83" value="NhaSX" style="shape=table;startSize=30;container=1;collapsible=0;childLayout=tableLayout;fixedRows=1;rowLines=0;fontStyle=0;strokeColor=default;fontSize=16;" parent="1" vertex="1">
          <mxGeometry x="939.8799999999999" y="957.5" width="178" height="155" as="geometry" />
        </mxCell>
        <mxCell id="EZ0jNG4qYMRLLxR_Fzao-84" value="" style="shape=tableRow;horizontal=0;startSize=0;swimlaneHead=0;swimlaneBody=0;top=0;left=0;bottom=0;right=0;collapsible=0;dropTarget=0;fillColor=none;points=[[0,0.5],[1,0.5]];portConstraint=eastwest;strokeColor=inherit;fontSize=16;" parent="EZ0jNG4qYMRLLxR_Fzao-83" vertex="1">
          <mxGeometry y="30" width="178" height="30" as="geometry" />
        </mxCell>
        <mxCell id="EZ0jNG4qYMRLLxR_Fzao-85" value="PK" style="shape=partialRectangle;html=1;whiteSpace=wrap;connectable=0;fillColor=none;top=0;left=0;bottom=0;right=0;overflow=hidden;pointerEvents=1;strokeColor=inherit;fontSize=16;" parent="EZ0jNG4qYMRLLxR_Fzao-84" vertex="1">
          <mxGeometry width="40" height="30" as="geometry">
            <mxRectangle width="40" height="30" as="alternateBounds" />
          </mxGeometry>
        </mxCell>
        <mxCell id="EZ0jNG4qYMRLLxR_Fzao-86" value="Id" style="shape=partialRectangle;html=1;whiteSpace=wrap;connectable=0;fillColor=none;top=0;left=0;bottom=0;right=0;align=left;spacingLeft=6;overflow=hidden;strokeColor=inherit;fontSize=16;" parent="EZ0jNG4qYMRLLxR_Fzao-84" vertex="1">
          <mxGeometry x="40" width="138" height="30" as="geometry">
            <mxRectangle width="138" height="30" as="alternateBounds" />
          </mxGeometry>
        </mxCell>
        <mxCell id="EZ0jNG4qYMRLLxR_Fzao-87" value="" style="shape=tableRow;horizontal=0;startSize=0;swimlaneHead=0;swimlaneBody=0;top=0;left=0;bottom=0;right=0;collapsible=0;dropTarget=0;fillColor=none;points=[[0,0.5],[1,0.5]];portConstraint=eastwest;strokeColor=inherit;fontSize=16;" parent="EZ0jNG4qYMRLLxR_Fzao-83" vertex="1">
          <mxGeometry y="60" width="178" height="30" as="geometry" />
        </mxCell>
        <mxCell id="EZ0jNG4qYMRLLxR_Fzao-88" value="" style="shape=partialRectangle;html=1;whiteSpace=wrap;connectable=0;fillColor=none;top=0;left=0;bottom=0;right=0;overflow=hidden;strokeColor=inherit;fontSize=16;" parent="EZ0jNG4qYMRLLxR_Fzao-87" vertex="1">
          <mxGeometry width="40" height="30" as="geometry">
            <mxRectangle width="40" height="30" as="alternateBounds" />
          </mxGeometry>
        </mxCell>
        <mxCell id="EZ0jNG4qYMRLLxR_Fzao-89" value="Ma" style="shape=partialRectangle;html=1;whiteSpace=wrap;connectable=0;fillColor=none;top=0;left=0;bottom=0;right=0;align=left;spacingLeft=6;overflow=hidden;strokeColor=inherit;fontSize=16;" parent="EZ0jNG4qYMRLLxR_Fzao-87" vertex="1">
          <mxGeometry x="40" width="138" height="30" as="geometry">
            <mxRectangle width="138" height="30" as="alternateBounds" />
          </mxGeometry>
        </mxCell>
        <mxCell id="EZ0jNG4qYMRLLxR_Fzao-90" value="" style="shape=tableRow;horizontal=0;startSize=0;swimlaneHead=0;swimlaneBody=0;top=0;left=0;bottom=0;right=0;collapsible=0;dropTarget=0;fillColor=none;points=[[0,0.5],[1,0.5]];portConstraint=eastwest;strokeColor=inherit;fontSize=16;" parent="EZ0jNG4qYMRLLxR_Fzao-83" vertex="1">
          <mxGeometry y="90" width="178" height="30" as="geometry" />
        </mxCell>
        <mxCell id="EZ0jNG4qYMRLLxR_Fzao-91" value="" style="shape=partialRectangle;html=1;whiteSpace=wrap;connectable=0;fillColor=none;top=0;left=0;bottom=0;right=0;overflow=hidden;strokeColor=inherit;fontSize=16;" parent="EZ0jNG4qYMRLLxR_Fzao-90" vertex="1">
          <mxGeometry width="40" height="30" as="geometry">
            <mxRectangle width="40" height="30" as="alternateBounds" />
          </mxGeometry>
        </mxCell>
        <mxCell id="EZ0jNG4qYMRLLxR_Fzao-92" value="Ten" style="shape=partialRectangle;html=1;whiteSpace=wrap;connectable=0;fillColor=none;top=0;left=0;bottom=0;right=0;align=left;spacingLeft=6;overflow=hidden;strokeColor=inherit;fontSize=16;" parent="EZ0jNG4qYMRLLxR_Fzao-90" vertex="1">
          <mxGeometry x="40" width="138" height="30" as="geometry">
            <mxRectangle width="138" height="30" as="alternateBounds" />
          </mxGeometry>
        </mxCell>
        <mxCell id="EZ0jNG4qYMRLLxR_Fzao-93" value="" style="shape=partialRectangle;html=1;whiteSpace=wrap;connectable=0;fillColor=none;top=0;left=0;bottom=0;right=0;overflow=hidden;strokeColor=inherit;fontSize=16;" parent="1" vertex="1">
          <mxGeometry x="1077.88" y="525" width="40" height="30" as="geometry">
            <mxRectangle width="40" height="30" as="alternateBounds" />
          </mxGeometry>
        </mxCell>
        <mxCell id="EZ0jNG4qYMRLLxR_Fzao-94" value="DiaChi" style="shape=partialRectangle;html=1;whiteSpace=wrap;connectable=0;fillColor=none;top=0;left=0;bottom=0;right=0;align=left;spacingLeft=6;overflow=hidden;strokeColor=inherit;fontSize=16;" parent="1" vertex="1">
          <mxGeometry x="977.8799999999999" y="1080" width="140" height="30" as="geometry">
            <mxRectangle width="140" height="30" as="alternateBounds" />
          </mxGeometry>
        </mxCell>
        <mxCell id="EZ0jNG4qYMRLLxR_Fzao-97" value="" style="endArrow=none;html=1;rounded=0;entryX=0.01;entryY=0.088;entryDx=0;entryDy=0;entryPerimeter=0;exitX=1;exitY=0.5;exitDx=0;exitDy=0;" parent="1" source="EZ0jNG4qYMRLLxR_Fzao-18" target="EZ0jNG4qYMRLLxR_Fzao-83" edge="1">
          <mxGeometry width="50" height="50" relative="1" as="geometry">
            <mxPoint x="900" y="940" as="sourcePoint" />
            <mxPoint x="976" y="490" as="targetPoint" />
          </mxGeometry>
        </mxCell>
        <mxCell id="EZ0jNG4qYMRLLxR_Fzao-108" value="TaiKhoan" style="shape=table;startSize=30;container=1;collapsible=0;childLayout=tableLayout;fixedRows=1;rowLines=0;fontStyle=0;strokeColor=default;fontSize=16;" parent="1" vertex="1">
          <mxGeometry x="130" y="1960" width="178" height="180" as="geometry" />
        </mxCell>
        <mxCell id="EZ0jNG4qYMRLLxR_Fzao-109" value="" style="shape=tableRow;horizontal=0;startSize=0;swimlaneHead=0;swimlaneBody=0;top=0;left=0;bottom=0;right=0;collapsible=0;dropTarget=0;fillColor=none;points=[[0,0.5],[1,0.5]];portConstraint=eastwest;strokeColor=inherit;fontSize=16;" parent="EZ0jNG4qYMRLLxR_Fzao-108" vertex="1">
          <mxGeometry y="30" width="178" height="30" as="geometry" />
        </mxCell>
        <mxCell id="EZ0jNG4qYMRLLxR_Fzao-110" value="PK" style="shape=partialRectangle;html=1;whiteSpace=wrap;connectable=0;fillColor=none;top=0;left=0;bottom=0;right=0;overflow=hidden;pointerEvents=1;strokeColor=inherit;fontSize=16;" parent="EZ0jNG4qYMRLLxR_Fzao-109" vertex="1">
          <mxGeometry width="40" height="30" as="geometry">
            <mxRectangle width="40" height="30" as="alternateBounds" />
          </mxGeometry>
        </mxCell>
        <mxCell id="EZ0jNG4qYMRLLxR_Fzao-111" value="Username" style="shape=partialRectangle;html=1;whiteSpace=wrap;connectable=0;fillColor=none;top=0;left=0;bottom=0;right=0;align=left;spacingLeft=6;overflow=hidden;strokeColor=inherit;fontSize=16;" parent="EZ0jNG4qYMRLLxR_Fzao-109" vertex="1">
          <mxGeometry x="40" width="138" height="30" as="geometry">
            <mxRectangle width="138" height="30" as="alternateBounds" />
          </mxGeometry>
        </mxCell>
        <mxCell id="EZ0jNG4qYMRLLxR_Fzao-112" value="" style="shape=tableRow;horizontal=0;startSize=0;swimlaneHead=0;swimlaneBody=0;top=0;left=0;bottom=0;right=0;collapsible=0;dropTarget=0;fillColor=none;points=[[0,0.5],[1,0.5]];portConstraint=eastwest;strokeColor=inherit;fontSize=16;" parent="EZ0jNG4qYMRLLxR_Fzao-108" vertex="1">
          <mxGeometry y="60" width="178" height="30" as="geometry" />
        </mxCell>
        <mxCell id="EZ0jNG4qYMRLLxR_Fzao-113" value="" style="shape=partialRectangle;html=1;whiteSpace=wrap;connectable=0;fillColor=none;top=0;left=0;bottom=0;right=0;overflow=hidden;strokeColor=inherit;fontSize=16;" parent="EZ0jNG4qYMRLLxR_Fzao-112" vertex="1">
          <mxGeometry width="40" height="30" as="geometry">
            <mxRectangle width="40" height="30" as="alternateBounds" />
          </mxGeometry>
        </mxCell>
        <mxCell id="EZ0jNG4qYMRLLxR_Fzao-114" value="Password" style="shape=partialRectangle;html=1;whiteSpace=wrap;connectable=0;fillColor=none;top=0;left=0;bottom=0;right=0;align=left;spacingLeft=6;overflow=hidden;strokeColor=inherit;fontSize=16;" parent="EZ0jNG4qYMRLLxR_Fzao-112" vertex="1">
          <mxGeometry x="40" width="138" height="30" as="geometry">
            <mxRectangle width="138" height="30" as="alternateBounds" />
          </mxGeometry>
        </mxCell>
        <mxCell id="EZ0jNG4qYMRLLxR_Fzao-115" value="" style="shape=tableRow;horizontal=0;startSize=0;swimlaneHead=0;swimlaneBody=0;top=0;left=0;bottom=0;right=0;collapsible=0;dropTarget=0;fillColor=none;points=[[0,0.5],[1,0.5]];portConstraint=eastwest;strokeColor=inherit;fontSize=16;" parent="EZ0jNG4qYMRLLxR_Fzao-108" vertex="1">
          <mxGeometry y="90" width="178" height="30" as="geometry" />
        </mxCell>
        <mxCell id="EZ0jNG4qYMRLLxR_Fzao-116" value="" style="shape=partialRectangle;html=1;whiteSpace=wrap;connectable=0;fillColor=none;top=0;left=0;bottom=0;right=0;overflow=hidden;strokeColor=inherit;fontSize=16;" parent="EZ0jNG4qYMRLLxR_Fzao-115" vertex="1">
          <mxGeometry width="40" height="30" as="geometry">
            <mxRectangle width="40" height="30" as="alternateBounds" />
          </mxGeometry>
        </mxCell>
        <mxCell id="EZ0jNG4qYMRLLxR_Fzao-117" value="TrangThai" style="shape=partialRectangle;html=1;whiteSpace=wrap;connectable=0;fillColor=none;top=0;left=0;bottom=0;right=0;align=left;spacingLeft=6;overflow=hidden;strokeColor=inherit;fontSize=16;" parent="EZ0jNG4qYMRLLxR_Fzao-115" vertex="1">
          <mxGeometry x="40" width="138" height="30" as="geometry">
            <mxRectangle width="138" height="30" as="alternateBounds" />
          </mxGeometry>
        </mxCell>
        <mxCell id="EZ0jNG4qYMRLLxR_Fzao-118" value="FK" style="shape=partialRectangle;html=1;whiteSpace=wrap;connectable=0;fillColor=none;top=0;left=0;bottom=0;right=0;overflow=hidden;strokeColor=inherit;fontSize=16;" parent="1" vertex="1">
          <mxGeometry x="130" y="2080" width="40" height="30" as="geometry">
            <mxRectangle width="40" height="30" as="alternateBounds" />
          </mxGeometry>
        </mxCell>
        <mxCell id="EZ0jNG4qYMRLLxR_Fzao-119" value="IdNV" style="shape=partialRectangle;html=1;whiteSpace=wrap;connectable=0;fillColor=none;top=0;left=0;bottom=0;right=0;align=left;spacingLeft=6;overflow=hidden;strokeColor=inherit;fontSize=16;" parent="1" vertex="1">
          <mxGeometry x="170" y="2080" width="140" height="30" as="geometry">
            <mxRectangle width="140" height="30" as="alternateBounds" />
          </mxGeometry>
        </mxCell>
        <mxCell id="EZ0jNG4qYMRLLxR_Fzao-123" value="&lt;font style=&quot;font-size: 15px;&quot;&gt;Quan He&lt;/font&gt;" style="rhombus;whiteSpace=wrap;html=1;" parent="1" vertex="1">
          <mxGeometry x="200" y="1810" width="80" height="80" as="geometry" />
        </mxCell>
        <mxCell id="EZ0jNG4qYMRLLxR_Fzao-124" value="" style="endArrow=none;html=1;rounded=0;entryX=0.5;entryY=1;entryDx=0;entryDy=0;exitX=0.5;exitY=0;exitDx=0;exitDy=0;" parent="1" source="EZ0jNG4qYMRLLxR_Fzao-125" target="hL4TjKniRrkw36ojrrID-49" edge="1">
          <mxGeometry width="50" height="50" relative="1" as="geometry">
            <mxPoint x="186" y="1820" as="sourcePoint" />
            <mxPoint x="236" y="1770" as="targetPoint" />
          </mxGeometry>
        </mxCell>
        <mxCell id="EZ0jNG4qYMRLLxR_Fzao-126" value="" style="endArrow=none;html=1;rounded=0;entryX=0.5;entryY=1;entryDx=0;entryDy=0;exitX=0.5;exitY=0;exitDx=0;exitDy=0;" parent="1" source="EZ0jNG4qYMRLLxR_Fzao-123" target="EZ0jNG4qYMRLLxR_Fzao-125" edge="1">
          <mxGeometry width="50" height="50" relative="1" as="geometry">
            <mxPoint x="240" y="1810" as="sourcePoint" />
            <mxPoint x="278" y="1725" as="targetPoint" />
          </mxGeometry>
        </mxCell>
        <mxCell id="EZ0jNG4qYMRLLxR_Fzao-125" value="1" style="text;html=1;strokeColor=none;fillColor=none;align=center;verticalAlign=middle;whiteSpace=wrap;rounded=0;" parent="1" vertex="1">
          <mxGeometry x="228.08" y="1755" width="60" height="30" as="geometry" />
        </mxCell>
        <mxCell id="EZ0jNG4qYMRLLxR_Fzao-127" value="" style="endArrow=none;html=1;rounded=0;entryX=0.5;entryY=1;entryDx=0;entryDy=0;exitX=0.409;exitY=-0.009;exitDx=0;exitDy=0;exitPerimeter=0;" parent="1" source="EZ0jNG4qYMRLLxR_Fzao-129" target="EZ0jNG4qYMRLLxR_Fzao-123" edge="1">
          <mxGeometry width="50" height="50" relative="1" as="geometry">
            <mxPoint x="176" y="1940" as="sourcePoint" />
            <mxPoint x="226" y="1890" as="targetPoint" />
          </mxGeometry>
        </mxCell>
        <mxCell id="EZ0jNG4qYMRLLxR_Fzao-128" value="" style="endArrow=none;html=1;rounded=0;entryX=0.5;entryY=1;entryDx=0;entryDy=0;exitX=0.409;exitY=-0.009;exitDx=0;exitDy=0;exitPerimeter=0;" parent="1" source="EZ0jNG4qYMRLLxR_Fzao-108" target="EZ0jNG4qYMRLLxR_Fzao-129" edge="1">
          <mxGeometry width="50" height="50" relative="1" as="geometry">
            <mxPoint x="203" y="1959" as="sourcePoint" />
            <mxPoint x="240" y="1890" as="targetPoint" />
          </mxGeometry>
        </mxCell>
        <mxCell id="EZ0jNG4qYMRLLxR_Fzao-129" value="1" style="text;html=1;strokeColor=none;fillColor=none;align=center;verticalAlign=middle;whiteSpace=wrap;rounded=0;" parent="1" vertex="1">
          <mxGeometry x="186" y="1910" width="64" height="30" as="geometry" />
        </mxCell>
        <mxCell id="EZqRBeLU4Vp7MXLjVU8d-1" value="KichCo" style="shape=table;startSize=30;container=1;collapsible=0;childLayout=tableLayout;fixedRows=1;rowLines=0;fontStyle=0;strokeColor=default;fontSize=16;" parent="1" vertex="1">
          <mxGeometry x="432.96" y="390" width="180" height="90" as="geometry" />
        </mxCell>
        <mxCell id="EZqRBeLU4Vp7MXLjVU8d-2" value="" style="shape=tableRow;horizontal=0;startSize=0;swimlaneHead=0;swimlaneBody=0;top=0;left=0;bottom=0;right=0;collapsible=0;dropTarget=0;fillColor=none;points=[[0,0.5],[1,0.5]];portConstraint=eastwest;strokeColor=inherit;fontSize=16;" parent="EZqRBeLU4Vp7MXLjVU8d-1" vertex="1">
          <mxGeometry y="30" width="180" height="30" as="geometry" />
        </mxCell>
        <mxCell id="EZqRBeLU4Vp7MXLjVU8d-3" value="PK" style="shape=partialRectangle;html=1;whiteSpace=wrap;connectable=0;fillColor=none;top=0;left=0;bottom=0;right=0;overflow=hidden;pointerEvents=1;strokeColor=inherit;fontSize=16;" parent="EZqRBeLU4Vp7MXLjVU8d-2" vertex="1">
          <mxGeometry width="40" height="30" as="geometry">
            <mxRectangle width="40" height="30" as="alternateBounds" />
          </mxGeometry>
        </mxCell>
        <mxCell id="EZqRBeLU4Vp7MXLjVU8d-4" value="Id" style="shape=partialRectangle;html=1;whiteSpace=wrap;connectable=0;fillColor=none;top=0;left=0;bottom=0;right=0;align=left;spacingLeft=6;overflow=hidden;strokeColor=inherit;fontSize=16;" parent="EZqRBeLU4Vp7MXLjVU8d-2" vertex="1">
          <mxGeometry x="40" width="140" height="30" as="geometry">
            <mxRectangle width="140" height="30" as="alternateBounds" />
          </mxGeometry>
        </mxCell>
        <mxCell id="EZqRBeLU4Vp7MXLjVU8d-5" value="" style="shape=tableRow;horizontal=0;startSize=0;swimlaneHead=0;swimlaneBody=0;top=0;left=0;bottom=0;right=0;collapsible=0;dropTarget=0;fillColor=none;points=[[0,0.5],[1,0.5]];portConstraint=eastwest;strokeColor=inherit;fontSize=16;" parent="EZqRBeLU4Vp7MXLjVU8d-1" vertex="1">
          <mxGeometry y="60" width="180" height="30" as="geometry" />
        </mxCell>
        <mxCell id="EZqRBeLU4Vp7MXLjVU8d-6" value="" style="shape=partialRectangle;html=1;whiteSpace=wrap;connectable=0;fillColor=none;top=0;left=0;bottom=0;right=0;overflow=hidden;strokeColor=inherit;fontSize=16;" parent="EZqRBeLU4Vp7MXLjVU8d-5" vertex="1">
          <mxGeometry width="40" height="30" as="geometry">
            <mxRectangle width="40" height="30" as="alternateBounds" />
          </mxGeometry>
        </mxCell>
        <mxCell id="EZqRBeLU4Vp7MXLjVU8d-7" value="CoGiay" style="shape=partialRectangle;html=1;whiteSpace=wrap;connectable=0;fillColor=none;top=0;left=0;bottom=0;right=0;align=left;spacingLeft=6;overflow=hidden;strokeColor=inherit;fontSize=16;" parent="EZqRBeLU4Vp7MXLjVU8d-5" vertex="1">
          <mxGeometry x="40" width="140" height="30" as="geometry">
            <mxRectangle width="140" height="30" as="alternateBounds" />
          </mxGeometry>
        </mxCell>
        <mxCell id="EZqRBeLU4Vp7MXLjVU8d-12" value="" style="endArrow=none;html=1;rounded=0;entryX=0;entryY=0.5;entryDx=0;entryDy=0;exitX=1;exitY=0.5;exitDx=0;exitDy=0;" parent="1" source="EZqRBeLU4Vp7MXLjVU8d-5" edge="1">
          <mxGeometry width="50" height="50" relative="1" as="geometry">
            <mxPoint x="255.88000000000002" y="415" as="sourcePoint" />
            <mxPoint x="714.96" y="525" as="targetPoint" />
          </mxGeometry>
        </mxCell>
        <mxCell id="EZqRBeLU4Vp7MXLjVU8d-13" value="FK" style="shape=partialRectangle;html=1;whiteSpace=wrap;connectable=0;fillColor=none;top=0;left=0;bottom=0;right=0;overflow=hidden;strokeColor=inherit;fontSize=16;" parent="1" vertex="1">
          <mxGeometry x="716.04" y="510" width="40" height="30" as="geometry">
            <mxRectangle width="40" height="30" as="alternateBounds" />
          </mxGeometry>
        </mxCell>
        <mxCell id="EZqRBeLU4Vp7MXLjVU8d-14" value="IdKichCo" style="shape=partialRectangle;html=1;whiteSpace=wrap;connectable=0;fillColor=none;top=0;left=0;bottom=0;right=0;align=left;spacingLeft=6;overflow=hidden;strokeColor=inherit;fontSize=16;" parent="1" vertex="1">
          <mxGeometry x="756.04" y="510" width="140" height="30" as="geometry">
            <mxRectangle width="140" height="30" as="alternateBounds" />
          </mxGeometry>
        </mxCell>
        <mxCell id="EZqRBeLU4Vp7MXLjVU8d-17" value="" style="shape=partialRectangle;html=1;whiteSpace=wrap;connectable=0;fillColor=none;top=0;left=0;bottom=0;right=0;overflow=hidden;strokeColor=inherit;fontSize=16;" parent="1" vertex="1">
          <mxGeometry x="132" y="2110" width="40" height="30" as="geometry">
            <mxRectangle width="40" height="30" as="alternateBounds" />
          </mxGeometry>
        </mxCell>
        <mxCell id="EZqRBeLU4Vp7MXLjVU8d-18" value="ChucVu" style="shape=partialRectangle;html=1;whiteSpace=wrap;connectable=0;fillColor=none;top=0;left=0;bottom=0;right=0;align=left;spacingLeft=6;overflow=hidden;strokeColor=inherit;fontSize=16;" parent="1" vertex="1">
          <mxGeometry x="172" y="2110" width="138" height="30" as="geometry">
            <mxRectangle width="138" height="30" as="alternateBounds" />
          </mxGeometry>
        </mxCell>
        <mxCell id="EZqRBeLU4Vp7MXLjVU8d-21" value="&lt;b&gt;FK&lt;/b&gt;" style="shape=partialRectangle;html=1;whiteSpace=wrap;connectable=0;fillColor=none;top=0;left=0;bottom=0;right=0;overflow=hidden;strokeColor=inherit;fontSize=16;" parent="1" vertex="1">
          <mxGeometry x="748.08" y="1495" width="40" height="30" as="geometry">
            <mxRectangle width="40" height="30" as="alternateBounds" />
          </mxGeometry>
        </mxCell>
        <mxCell id="EZqRBeLU4Vp7MXLjVU8d-22" value="&lt;b&gt;IdChiTietSP&lt;/b&gt;" style="shape=partialRectangle;html=1;whiteSpace=wrap;connectable=0;fillColor=none;top=0;left=0;bottom=0;right=0;align=left;spacingLeft=6;overflow=hidden;strokeColor=inherit;fontSize=16;" parent="1" vertex="1">
          <mxGeometry x="788.08" y="1495" width="140" height="30" as="geometry">
            <mxRectangle width="140" height="30" as="alternateBounds" />
          </mxGeometry>
        </mxCell>
        <mxCell id="EZqRBeLU4Vp7MXLjVU8d-23" value="" style="shape=partialRectangle;html=1;whiteSpace=wrap;connectable=0;fillColor=none;top=0;left=0;bottom=0;right=0;overflow=hidden;strokeColor=inherit;fontSize=16;" parent="1" vertex="1">
          <mxGeometry x="716.04" y="540" width="40" height="30" as="geometry">
            <mxRectangle width="40" height="30" as="alternateBounds" />
          </mxGeometry>
        </mxCell>
        <mxCell id="EZqRBeLU4Vp7MXLjVU8d-24" value="SoLuong" style="shape=partialRectangle;html=1;whiteSpace=wrap;connectable=0;fillColor=none;top=0;left=0;bottom=0;right=0;align=left;spacingLeft=6;overflow=hidden;strokeColor=inherit;fontSize=16;" parent="1" vertex="1">
          <mxGeometry x="756.04" y="540" width="140" height="30" as="geometry">
            <mxRectangle width="140" height="30" as="alternateBounds" />
          </mxGeometry>
        </mxCell>
        <mxCell id="9VTCkP97mQbedpXENxUh-20" value="FK" style="shape=partialRectangle;html=1;whiteSpace=wrap;connectable=0;fillColor=none;top=0;left=0;bottom=0;right=0;overflow=hidden;strokeColor=inherit;fontSize=16;" parent="1" vertex="1">
          <mxGeometry x="722.92" y="830" width="40" height="30" as="geometry">
            <mxRectangle width="40" height="30" as="alternateBounds" />
          </mxGeometry>
        </mxCell>
        <mxCell id="9VTCkP97mQbedpXENxUh-21" value="IdDeGiay" style="shape=partialRectangle;html=1;whiteSpace=wrap;connectable=0;fillColor=none;top=0;left=0;bottom=0;right=0;align=left;spacingLeft=6;overflow=hidden;strokeColor=inherit;fontSize=16;" parent="1" vertex="1">
          <mxGeometry x="762.92" y="830" width="138" height="30" as="geometry">
            <mxRectangle width="138" height="30" as="alternateBounds" />
          </mxGeometry>
        </mxCell>
        <mxCell id="9VTCkP97mQbedpXENxUh-22" value="FK" style="shape=partialRectangle;html=1;whiteSpace=wrap;connectable=0;fillColor=none;top=0;left=0;bottom=0;right=0;overflow=hidden;strokeColor=inherit;fontSize=16;" parent="1" vertex="1">
          <mxGeometry x="722.92" y="860" width="40" height="30" as="geometry">
            <mxRectangle width="40" height="30" as="alternateBounds" />
          </mxGeometry>
        </mxCell>
        <mxCell id="9VTCkP97mQbedpXENxUh-23" value="IdNhaSX" style="shape=partialRectangle;html=1;whiteSpace=wrap;connectable=0;fillColor=none;top=0;left=0;bottom=0;right=0;align=left;spacingLeft=6;overflow=hidden;strokeColor=inherit;fontSize=16;" parent="1" vertex="1">
          <mxGeometry x="762.92" y="860" width="138" height="30" as="geometry">
            <mxRectangle width="138" height="30" as="alternateBounds" />
          </mxGeometry>
        </mxCell>
        <mxCell id="9VTCkP97mQbedpXENxUh-24" value="FK" style="shape=partialRectangle;html=1;whiteSpace=wrap;connectable=0;fillColor=none;top=0;left=0;bottom=0;right=0;overflow=hidden;strokeColor=inherit;fontSize=16;" parent="1" vertex="1">
          <mxGeometry x="723" y="890" width="40" height="30" as="geometry">
            <mxRectangle width="40" height="30" as="alternateBounds" />
          </mxGeometry>
        </mxCell>
        <mxCell id="9VTCkP97mQbedpXENxUh-25" value="IdDongSP" style="shape=partialRectangle;html=1;whiteSpace=wrap;connectable=0;fillColor=none;top=0;left=0;bottom=0;right=0;align=left;spacingLeft=6;overflow=hidden;strokeColor=inherit;fontSize=16;" parent="1" vertex="1">
          <mxGeometry x="763" y="890" width="138" height="30" as="geometry">
            <mxRectangle width="138" height="30" as="alternateBounds" />
          </mxGeometry>
        </mxCell>
        <mxCell id="9VTCkP97mQbedpXENxUh-26" value="GioHang" style="shape=table;startSize=30;container=1;collapsible=0;childLayout=tableLayout;fixedRows=1;rowLines=0;fontStyle=0;strokeColor=default;fontSize=16;" parent="1" vertex="1">
          <mxGeometry x="720.9200000000001" y="1785" width="180" height="315" as="geometry" />
        </mxCell>
        <mxCell id="9VTCkP97mQbedpXENxUh-27" value="" style="shape=tableRow;horizontal=0;startSize=0;swimlaneHead=0;swimlaneBody=0;top=0;left=0;bottom=0;right=0;collapsible=0;dropTarget=0;fillColor=none;points=[[0,0.5],[1,0.5]];portConstraint=eastwest;strokeColor=inherit;fontSize=16;" parent="9VTCkP97mQbedpXENxUh-26" vertex="1">
          <mxGeometry y="30" width="180" height="30" as="geometry" />
        </mxCell>
        <mxCell id="9VTCkP97mQbedpXENxUh-28" value="PK" style="shape=partialRectangle;html=1;whiteSpace=wrap;connectable=0;fillColor=none;top=0;left=0;bottom=0;right=0;overflow=hidden;pointerEvents=1;strokeColor=inherit;fontSize=16;" parent="9VTCkP97mQbedpXENxUh-27" vertex="1">
          <mxGeometry width="40" height="30" as="geometry">
            <mxRectangle width="40" height="30" as="alternateBounds" />
          </mxGeometry>
        </mxCell>
        <mxCell id="9VTCkP97mQbedpXENxUh-29" value="Id" style="shape=partialRectangle;html=1;whiteSpace=wrap;connectable=0;fillColor=none;top=0;left=0;bottom=0;right=0;align=left;spacingLeft=6;overflow=hidden;strokeColor=inherit;fontSize=16;" parent="9VTCkP97mQbedpXENxUh-27" vertex="1">
          <mxGeometry x="40" width="140" height="30" as="geometry">
            <mxRectangle width="140" height="30" as="alternateBounds" />
          </mxGeometry>
        </mxCell>
        <mxCell id="9VTCkP97mQbedpXENxUh-30" value="" style="shape=tableRow;horizontal=0;startSize=0;swimlaneHead=0;swimlaneBody=0;top=0;left=0;bottom=0;right=0;collapsible=0;dropTarget=0;fillColor=none;points=[[0,0.5],[1,0.5]];portConstraint=eastwest;strokeColor=inherit;fontSize=16;" parent="9VTCkP97mQbedpXENxUh-26" vertex="1">
          <mxGeometry y="60" width="180" height="30" as="geometry" />
        </mxCell>
        <mxCell id="9VTCkP97mQbedpXENxUh-31" value="FK" style="shape=partialRectangle;html=1;whiteSpace=wrap;connectable=0;fillColor=none;top=0;left=0;bottom=0;right=0;overflow=hidden;strokeColor=inherit;fontSize=16;" parent="9VTCkP97mQbedpXENxUh-30" vertex="1">
          <mxGeometry width="40" height="30" as="geometry">
            <mxRectangle width="40" height="30" as="alternateBounds" />
          </mxGeometry>
        </mxCell>
        <mxCell id="9VTCkP97mQbedpXENxUh-32" value="IdKH" style="shape=partialRectangle;html=1;whiteSpace=wrap;connectable=0;fillColor=none;top=0;left=0;bottom=0;right=0;align=left;spacingLeft=6;overflow=hidden;strokeColor=inherit;fontSize=16;" parent="9VTCkP97mQbedpXENxUh-30" vertex="1">
          <mxGeometry x="40" width="140" height="30" as="geometry">
            <mxRectangle width="140" height="30" as="alternateBounds" />
          </mxGeometry>
        </mxCell>
        <mxCell id="9VTCkP97mQbedpXENxUh-33" value="" style="shape=tableRow;horizontal=0;startSize=0;swimlaneHead=0;swimlaneBody=0;top=0;left=0;bottom=0;right=0;collapsible=0;dropTarget=0;fillColor=none;points=[[0,0.5],[1,0.5]];portConstraint=eastwest;strokeColor=inherit;fontSize=16;" parent="9VTCkP97mQbedpXENxUh-26" vertex="1">
          <mxGeometry y="90" width="180" height="30" as="geometry" />
        </mxCell>
        <mxCell id="9VTCkP97mQbedpXENxUh-34" value="FK" style="shape=partialRectangle;html=1;whiteSpace=wrap;connectable=0;fillColor=none;top=0;left=0;bottom=0;right=0;overflow=hidden;strokeColor=inherit;fontSize=16;" parent="9VTCkP97mQbedpXENxUh-33" vertex="1">
          <mxGeometry width="40" height="30" as="geometry">
            <mxRectangle width="40" height="30" as="alternateBounds" />
          </mxGeometry>
        </mxCell>
        <mxCell id="9VTCkP97mQbedpXENxUh-35" value="IdNV" style="shape=partialRectangle;html=1;whiteSpace=wrap;connectable=0;fillColor=none;top=0;left=0;bottom=0;right=0;align=left;spacingLeft=6;overflow=hidden;strokeColor=inherit;fontSize=16;" parent="9VTCkP97mQbedpXENxUh-33" vertex="1">
          <mxGeometry x="40" width="140" height="30" as="geometry">
            <mxRectangle width="140" height="30" as="alternateBounds" />
          </mxGeometry>
        </mxCell>
        <mxCell id="9VTCkP97mQbedpXENxUh-40" value="GioHangCT" style="shape=table;startSize=30;container=1;collapsible=0;childLayout=tableLayout;fixedRows=1;rowLines=0;fontStyle=0;strokeColor=default;fontSize=16;" parent="1" vertex="1">
          <mxGeometry x="1380" y="1280" width="180" height="175" as="geometry" />
        </mxCell>
        <mxCell id="9VTCkP97mQbedpXENxUh-41" value="" style="shape=tableRow;horizontal=0;startSize=0;swimlaneHead=0;swimlaneBody=0;top=0;left=0;bottom=0;right=0;collapsible=0;dropTarget=0;fillColor=none;points=[[0,0.5],[1,0.5]];portConstraint=eastwest;strokeColor=inherit;fontSize=16;" parent="9VTCkP97mQbedpXENxUh-40" vertex="1">
          <mxGeometry y="30" width="180" height="30" as="geometry" />
        </mxCell>
        <mxCell id="9VTCkP97mQbedpXENxUh-42" value="PK" style="shape=partialRectangle;html=1;whiteSpace=wrap;connectable=0;fillColor=none;top=0;left=0;bottom=0;right=0;overflow=hidden;pointerEvents=1;strokeColor=inherit;fontSize=16;" parent="9VTCkP97mQbedpXENxUh-41" vertex="1">
          <mxGeometry width="40" height="30" as="geometry">
            <mxRectangle width="40" height="30" as="alternateBounds" />
          </mxGeometry>
        </mxCell>
        <mxCell id="9VTCkP97mQbedpXENxUh-43" value="Id" style="shape=partialRectangle;html=1;whiteSpace=wrap;connectable=0;fillColor=none;top=0;left=0;bottom=0;right=0;align=left;spacingLeft=6;overflow=hidden;strokeColor=inherit;fontSize=16;" parent="9VTCkP97mQbedpXENxUh-41" vertex="1">
          <mxGeometry x="40" width="140" height="30" as="geometry">
            <mxRectangle width="140" height="30" as="alternateBounds" />
          </mxGeometry>
        </mxCell>
        <mxCell id="9VTCkP97mQbedpXENxUh-44" value="" style="shape=tableRow;horizontal=0;startSize=0;swimlaneHead=0;swimlaneBody=0;top=0;left=0;bottom=0;right=0;collapsible=0;dropTarget=0;fillColor=none;points=[[0,0.5],[1,0.5]];portConstraint=eastwest;strokeColor=inherit;fontSize=16;" parent="9VTCkP97mQbedpXENxUh-40" vertex="1">
          <mxGeometry y="60" width="180" height="30" as="geometry" />
        </mxCell>
        <mxCell id="9VTCkP97mQbedpXENxUh-45" value="FK" style="shape=partialRectangle;html=1;whiteSpace=wrap;connectable=0;fillColor=none;top=0;left=0;bottom=0;right=0;overflow=hidden;strokeColor=inherit;fontSize=16;" parent="9VTCkP97mQbedpXENxUh-44" vertex="1">
          <mxGeometry width="40" height="30" as="geometry">
            <mxRectangle width="40" height="30" as="alternateBounds" />
          </mxGeometry>
        </mxCell>
        <mxCell id="9VTCkP97mQbedpXENxUh-46" value="IdGioHang" style="shape=partialRectangle;html=1;whiteSpace=wrap;connectable=0;fillColor=none;top=0;left=0;bottom=0;right=0;align=left;spacingLeft=6;overflow=hidden;strokeColor=inherit;fontSize=16;" parent="9VTCkP97mQbedpXENxUh-44" vertex="1">
          <mxGeometry x="40" width="140" height="30" as="geometry">
            <mxRectangle width="140" height="30" as="alternateBounds" />
          </mxGeometry>
        </mxCell>
        <mxCell id="9VTCkP97mQbedpXENxUh-47" value="" style="shape=tableRow;horizontal=0;startSize=0;swimlaneHead=0;swimlaneBody=0;top=0;left=0;bottom=0;right=0;collapsible=0;dropTarget=0;fillColor=none;points=[[0,0.5],[1,0.5]];portConstraint=eastwest;strokeColor=inherit;fontSize=16;" parent="9VTCkP97mQbedpXENxUh-40" vertex="1">
          <mxGeometry y="90" width="180" height="30" as="geometry" />
        </mxCell>
        <mxCell id="9VTCkP97mQbedpXENxUh-48" value="FK" style="shape=partialRectangle;html=1;whiteSpace=wrap;connectable=0;fillColor=none;top=0;left=0;bottom=0;right=0;overflow=hidden;strokeColor=inherit;fontSize=16;" parent="9VTCkP97mQbedpXENxUh-47" vertex="1">
          <mxGeometry width="40" height="30" as="geometry">
            <mxRectangle width="40" height="30" as="alternateBounds" />
          </mxGeometry>
        </mxCell>
        <mxCell id="9VTCkP97mQbedpXENxUh-49" value="IdChiTietSP" style="shape=partialRectangle;html=1;whiteSpace=wrap;connectable=0;fillColor=none;top=0;left=0;bottom=0;right=0;align=left;spacingLeft=6;overflow=hidden;strokeColor=inherit;fontSize=16;" parent="9VTCkP97mQbedpXENxUh-47" vertex="1">
          <mxGeometry x="40" width="140" height="30" as="geometry">
            <mxRectangle width="140" height="30" as="alternateBounds" />
          </mxGeometry>
        </mxCell>
        <mxCell id="9VTCkP97mQbedpXENxUh-51" value="SoLuong" style="shape=partialRectangle;html=1;whiteSpace=wrap;connectable=0;fillColor=none;top=0;left=0;bottom=0;right=0;align=left;spacingLeft=6;overflow=hidden;strokeColor=inherit;fontSize=16;" parent="1" vertex="1">
          <mxGeometry x="1420" y="1400" width="140" height="30" as="geometry">
            <mxRectangle width="140" height="30" as="alternateBounds" />
          </mxGeometry>
        </mxCell>
        <mxCell id="9VTCkP97mQbedpXENxUh-53" value="DonGia" style="shape=partialRectangle;html=1;whiteSpace=wrap;connectable=0;fillColor=none;top=0;left=0;bottom=0;right=0;align=left;spacingLeft=6;overflow=hidden;strokeColor=inherit;fontSize=16;" parent="1" vertex="1">
          <mxGeometry x="1420" y="1425" width="140" height="30" as="geometry">
            <mxRectangle width="140" height="30" as="alternateBounds" />
          </mxGeometry>
        </mxCell>
        <mxCell id="9VTCkP97mQbedpXENxUh-54" value="" style="shape=partialRectangle;html=1;whiteSpace=wrap;connectable=0;fillColor=none;top=0;left=0;bottom=0;right=0;overflow=hidden;strokeColor=inherit;fontSize=16;" parent="1" vertex="1">
          <mxGeometry x="720.9200000000001" y="1900" width="40" height="30" as="geometry">
            <mxRectangle width="40" height="30" as="alternateBounds" />
          </mxGeometry>
        </mxCell>
        <mxCell id="9VTCkP97mQbedpXENxUh-55" value="Ma" style="shape=partialRectangle;html=1;whiteSpace=wrap;connectable=0;fillColor=none;top=0;left=0;bottom=0;right=0;align=left;spacingLeft=6;overflow=hidden;strokeColor=inherit;fontSize=16;" parent="1" vertex="1">
          <mxGeometry x="760.9200000000001" y="1900" width="140" height="30" as="geometry">
            <mxRectangle width="140" height="30" as="alternateBounds" />
          </mxGeometry>
        </mxCell>
        <mxCell id="9VTCkP97mQbedpXENxUh-56" value="" style="shape=partialRectangle;html=1;whiteSpace=wrap;connectable=0;fillColor=none;top=0;left=0;bottom=0;right=0;overflow=hidden;strokeColor=inherit;fontSize=16;" parent="1" vertex="1">
          <mxGeometry x="720.9200000000001" y="1930" width="40" height="30" as="geometry">
            <mxRectangle width="40" height="30" as="alternateBounds" />
          </mxGeometry>
        </mxCell>
        <mxCell id="9VTCkP97mQbedpXENxUh-57" value="NgayTao" style="shape=partialRectangle;html=1;whiteSpace=wrap;connectable=0;fillColor=none;top=0;left=0;bottom=0;right=0;align=left;spacingLeft=6;overflow=hidden;strokeColor=inherit;fontSize=16;" parent="1" vertex="1">
          <mxGeometry x="760.9200000000001" y="1930" width="140" height="30" as="geometry">
            <mxRectangle width="140" height="30" as="alternateBounds" />
          </mxGeometry>
        </mxCell>
        <mxCell id="9VTCkP97mQbedpXENxUh-58" value="" style="shape=partialRectangle;html=1;whiteSpace=wrap;connectable=0;fillColor=none;top=0;left=0;bottom=0;right=0;overflow=hidden;strokeColor=inherit;fontSize=16;" parent="1" vertex="1">
          <mxGeometry x="720.9200000000001" y="1960" width="40" height="30" as="geometry">
            <mxRectangle width="40" height="30" as="alternateBounds" />
          </mxGeometry>
        </mxCell>
        <mxCell id="9VTCkP97mQbedpXENxUh-59" value="NgayThanhToan" style="shape=partialRectangle;html=1;whiteSpace=wrap;connectable=0;fillColor=none;top=0;left=0;bottom=0;right=0;align=left;spacingLeft=6;overflow=hidden;strokeColor=inherit;fontSize=16;" parent="1" vertex="1">
          <mxGeometry x="760.9200000000001" y="1960" width="140" height="30" as="geometry">
            <mxRectangle width="140" height="30" as="alternateBounds" />
          </mxGeometry>
        </mxCell>
        <mxCell id="9VTCkP97mQbedpXENxUh-60" value="" style="shape=partialRectangle;html=1;whiteSpace=wrap;connectable=0;fillColor=none;top=0;left=0;bottom=0;right=0;overflow=hidden;strokeColor=inherit;fontSize=16;" parent="1" vertex="1">
          <mxGeometry x="720.9200000000001" y="1990" width="40" height="30" as="geometry">
            <mxRectangle width="40" height="30" as="alternateBounds" />
          </mxGeometry>
        </mxCell>
        <mxCell id="9VTCkP97mQbedpXENxUh-61" value="Ten" style="shape=partialRectangle;html=1;whiteSpace=wrap;connectable=0;fillColor=none;top=0;left=0;bottom=0;right=0;align=left;spacingLeft=6;overflow=hidden;strokeColor=inherit;fontSize=16;" parent="1" vertex="1">
          <mxGeometry x="760.9200000000001" y="1990" width="140" height="30" as="geometry">
            <mxRectangle width="140" height="30" as="alternateBounds" />
          </mxGeometry>
        </mxCell>
        <mxCell id="9VTCkP97mQbedpXENxUh-63" value="" style="shape=partialRectangle;html=1;whiteSpace=wrap;connectable=0;fillColor=none;top=0;left=0;bottom=0;right=0;overflow=hidden;strokeColor=inherit;fontSize=16;" parent="1" vertex="1">
          <mxGeometry x="720.9200000000001" y="2020" width="40" height="30" as="geometry">
            <mxRectangle width="40" height="30" as="alternateBounds" />
          </mxGeometry>
        </mxCell>
        <mxCell id="9VTCkP97mQbedpXENxUh-64" value="Sdt" style="shape=partialRectangle;html=1;whiteSpace=wrap;connectable=0;fillColor=none;top=0;left=0;bottom=0;right=0;align=left;spacingLeft=6;overflow=hidden;strokeColor=inherit;fontSize=16;" parent="1" vertex="1">
          <mxGeometry x="760.9200000000001" y="2020" width="140" height="30" as="geometry">
            <mxRectangle width="140" height="30" as="alternateBounds" />
          </mxGeometry>
        </mxCell>
        <mxCell id="9VTCkP97mQbedpXENxUh-65" value="" style="shape=partialRectangle;html=1;whiteSpace=wrap;connectable=0;fillColor=none;top=0;left=0;bottom=0;right=0;overflow=hidden;strokeColor=inherit;fontSize=16;" parent="1" vertex="1">
          <mxGeometry x="720.9200000000001" y="2045" width="40" height="30" as="geometry">
            <mxRectangle width="40" height="30" as="alternateBounds" />
          </mxGeometry>
        </mxCell>
        <mxCell id="9VTCkP97mQbedpXENxUh-66" value="DiaChi" style="shape=partialRectangle;html=1;whiteSpace=wrap;connectable=0;fillColor=none;top=0;left=0;bottom=0;right=0;align=left;spacingLeft=6;overflow=hidden;strokeColor=inherit;fontSize=16;" parent="1" vertex="1">
          <mxGeometry x="760.9200000000001" y="2045" width="140" height="30" as="geometry">
            <mxRectangle width="140" height="30" as="alternateBounds" />
          </mxGeometry>
        </mxCell>
        <mxCell id="9VTCkP97mQbedpXENxUh-67" value="" style="shape=partialRectangle;html=1;whiteSpace=wrap;connectable=0;fillColor=none;top=0;left=0;bottom=0;right=0;overflow=hidden;strokeColor=inherit;fontSize=16;" parent="1" vertex="1">
          <mxGeometry x="720.9200000000001" y="2070" width="40" height="30" as="geometry">
            <mxRectangle width="40" height="30" as="alternateBounds" />
          </mxGeometry>
        </mxCell>
        <mxCell id="9VTCkP97mQbedpXENxUh-68" value="TinhTrang" style="shape=partialRectangle;html=1;whiteSpace=wrap;connectable=0;fillColor=none;top=0;left=0;bottom=0;right=0;align=left;spacingLeft=6;overflow=hidden;strokeColor=inherit;fontSize=16;" parent="1" vertex="1">
          <mxGeometry x="760.9200000000001" y="2070" width="140" height="30" as="geometry">
            <mxRectangle width="140" height="30" as="alternateBounds" />
          </mxGeometry>
        </mxCell>
        <mxCell id="9VTCkP97mQbedpXENxUh-69" value="" style="endArrow=none;html=1;rounded=0;" parent="1" edge="1">
          <mxGeometry width="50" height="50" relative="1" as="geometry">
            <mxPoint x="370" y="1480" as="sourcePoint" />
            <mxPoint x="720" y="1900" as="targetPoint" />
          </mxGeometry>
        </mxCell>
        <mxCell id="9VTCkP97mQbedpXENxUh-70" value="" style="endArrow=none;html=1;rounded=0;entryX=0;entryY=0.5;entryDx=0;entryDy=0;" parent="1" target="2nLP9KUXU7uZTx3rWCLJ-169" edge="1">
          <mxGeometry width="50" height="50" relative="1" as="geometry">
            <mxPoint x="900" y="1900" as="sourcePoint" />
            <mxPoint x="1090" y="1770" as="targetPoint" />
          </mxGeometry>
        </mxCell>
        <mxCell id="9VTCkP97mQbedpXENxUh-71" value="" style="endArrow=none;html=1;rounded=0;entryX=0;entryY=0.5;entryDx=0;entryDy=0;" parent="1" target="9VTCkP97mQbedpXENxUh-44" edge="1">
          <mxGeometry width="50" height="50" relative="1" as="geometry">
            <mxPoint x="900" y="1900" as="sourcePoint" />
            <mxPoint x="1070" y="1940" as="targetPoint" />
          </mxGeometry>
        </mxCell>
        <mxCell id="9VTCkP97mQbedpXENxUh-72" value="" style="endArrow=none;html=1;rounded=0;exitX=0.5;exitY=0;exitDx=0;exitDy=0;entryX=0.5;entryY=1;entryDx=0;entryDy=0;" parent="1" source="9VTCkP97mQbedpXENxUh-40" target="2nLP9KUXU7uZTx3rWCLJ-117" edge="1">
          <mxGeometry width="50" height="50" relative="1" as="geometry">
            <mxPoint x="1240" y="1800" as="sourcePoint" />
            <mxPoint x="1290" y="1750" as="targetPoint" />
          </mxGeometry>
        </mxCell>
        <mxCell id="aEAsptuv42Pw4wkuXZzJ-9" value="CaLam" style="shape=table;startSize=30;container=1;collapsible=0;childLayout=tableLayout;fixedRows=1;rowLines=0;fontStyle=0;strokeColor=default;fontSize=16;" vertex="1" parent="1">
          <mxGeometry x="438.08" y="1920" width="180" height="90" as="geometry" />
        </mxCell>
        <mxCell id="aEAsptuv42Pw4wkuXZzJ-10" value="" style="shape=tableRow;horizontal=0;startSize=0;swimlaneHead=0;swimlaneBody=0;top=0;left=0;bottom=0;right=0;collapsible=0;dropTarget=0;fillColor=none;points=[[0,0.5],[1,0.5]];portConstraint=eastwest;strokeColor=inherit;fontSize=16;" vertex="1" parent="aEAsptuv42Pw4wkuXZzJ-9">
          <mxGeometry y="30" width="180" height="30" as="geometry" />
        </mxCell>
        <mxCell id="aEAsptuv42Pw4wkuXZzJ-11" value="PK" style="shape=partialRectangle;html=1;whiteSpace=wrap;connectable=0;fillColor=none;top=0;left=0;bottom=0;right=0;overflow=hidden;pointerEvents=1;strokeColor=inherit;fontSize=16;" vertex="1" parent="aEAsptuv42Pw4wkuXZzJ-10">
          <mxGeometry width="40" height="30" as="geometry">
            <mxRectangle width="40" height="30" as="alternateBounds" />
          </mxGeometry>
        </mxCell>
        <mxCell id="aEAsptuv42Pw4wkuXZzJ-12" value="Id" style="shape=partialRectangle;html=1;whiteSpace=wrap;connectable=0;fillColor=none;top=0;left=0;bottom=0;right=0;align=left;spacingLeft=6;overflow=hidden;strokeColor=inherit;fontSize=16;" vertex="1" parent="aEAsptuv42Pw4wkuXZzJ-10">
          <mxGeometry x="40" width="140" height="30" as="geometry">
            <mxRectangle width="140" height="30" as="alternateBounds" />
          </mxGeometry>
        </mxCell>
        <mxCell id="aEAsptuv42Pw4wkuXZzJ-13" value="" style="shape=tableRow;horizontal=0;startSize=0;swimlaneHead=0;swimlaneBody=0;top=0;left=0;bottom=0;right=0;collapsible=0;dropTarget=0;fillColor=none;points=[[0,0.5],[1,0.5]];portConstraint=eastwest;strokeColor=inherit;fontSize=16;" vertex="1" parent="aEAsptuv42Pw4wkuXZzJ-9">
          <mxGeometry y="60" width="180" height="30" as="geometry" />
        </mxCell>
        <mxCell id="aEAsptuv42Pw4wkuXZzJ-14" value="" style="shape=partialRectangle;html=1;whiteSpace=wrap;connectable=0;fillColor=none;top=0;left=0;bottom=0;right=0;overflow=hidden;strokeColor=inherit;fontSize=16;" vertex="1" parent="aEAsptuv42Pw4wkuXZzJ-13">
          <mxGeometry width="40" height="30" as="geometry">
            <mxRectangle width="40" height="30" as="alternateBounds" />
          </mxGeometry>
        </mxCell>
        <mxCell id="aEAsptuv42Pw4wkuXZzJ-15" value="Ten" style="shape=partialRectangle;html=1;whiteSpace=wrap;connectable=0;fillColor=none;top=0;left=0;bottom=0;right=0;align=left;spacingLeft=6;overflow=hidden;strokeColor=inherit;fontSize=16;" vertex="1" parent="aEAsptuv42Pw4wkuXZzJ-13">
          <mxGeometry x="40" width="140" height="30" as="geometry">
            <mxRectangle width="140" height="30" as="alternateBounds" />
          </mxGeometry>
        </mxCell>
        <mxCell id="aEAsptuv42Pw4wkuXZzJ-19" value="LichLamViec" style="shape=table;startSize=30;container=1;collapsible=0;childLayout=tableLayout;fixedRows=1;rowLines=0;fontStyle=0;strokeColor=default;fontSize=16;" vertex="1" parent="1">
          <mxGeometry x="362.96" y="1725" width="180" height="120" as="geometry" />
        </mxCell>
        <mxCell id="aEAsptuv42Pw4wkuXZzJ-20" value="" style="shape=tableRow;horizontal=0;startSize=0;swimlaneHead=0;swimlaneBody=0;top=0;left=0;bottom=0;right=0;collapsible=0;dropTarget=0;fillColor=none;points=[[0,0.5],[1,0.5]];portConstraint=eastwest;strokeColor=inherit;fontSize=16;" vertex="1" parent="aEAsptuv42Pw4wkuXZzJ-19">
          <mxGeometry y="30" width="180" height="30" as="geometry" />
        </mxCell>
        <mxCell id="aEAsptuv42Pw4wkuXZzJ-21" value="PK" style="shape=partialRectangle;html=1;whiteSpace=wrap;connectable=0;fillColor=none;top=0;left=0;bottom=0;right=0;overflow=hidden;pointerEvents=1;strokeColor=inherit;fontSize=16;" vertex="1" parent="aEAsptuv42Pw4wkuXZzJ-20">
          <mxGeometry width="40" height="30" as="geometry">
            <mxRectangle width="40" height="30" as="alternateBounds" />
          </mxGeometry>
        </mxCell>
        <mxCell id="aEAsptuv42Pw4wkuXZzJ-22" value="Id" style="shape=partialRectangle;html=1;whiteSpace=wrap;connectable=0;fillColor=none;top=0;left=0;bottom=0;right=0;align=left;spacingLeft=6;overflow=hidden;strokeColor=inherit;fontSize=16;" vertex="1" parent="aEAsptuv42Pw4wkuXZzJ-20">
          <mxGeometry x="40" width="140" height="30" as="geometry">
            <mxRectangle width="140" height="30" as="alternateBounds" />
          </mxGeometry>
        </mxCell>
        <mxCell id="aEAsptuv42Pw4wkuXZzJ-23" value="" style="shape=tableRow;horizontal=0;startSize=0;swimlaneHead=0;swimlaneBody=0;top=0;left=0;bottom=0;right=0;collapsible=0;dropTarget=0;fillColor=none;points=[[0,0.5],[1,0.5]];portConstraint=eastwest;strokeColor=inherit;fontSize=16;" vertex="1" parent="aEAsptuv42Pw4wkuXZzJ-19">
          <mxGeometry y="60" width="180" height="30" as="geometry" />
        </mxCell>
        <mxCell id="aEAsptuv42Pw4wkuXZzJ-24" value="FK" style="shape=partialRectangle;html=1;whiteSpace=wrap;connectable=0;fillColor=none;top=0;left=0;bottom=0;right=0;overflow=hidden;strokeColor=inherit;fontSize=16;" vertex="1" parent="aEAsptuv42Pw4wkuXZzJ-23">
          <mxGeometry width="40" height="30" as="geometry">
            <mxRectangle width="40" height="30" as="alternateBounds" />
          </mxGeometry>
        </mxCell>
        <mxCell id="aEAsptuv42Pw4wkuXZzJ-25" value="IdCaLam" style="shape=partialRectangle;html=1;whiteSpace=wrap;connectable=0;fillColor=none;top=0;left=0;bottom=0;right=0;align=left;spacingLeft=6;overflow=hidden;strokeColor=inherit;fontSize=16;" vertex="1" parent="aEAsptuv42Pw4wkuXZzJ-23">
          <mxGeometry x="40" width="140" height="30" as="geometry">
            <mxRectangle width="140" height="30" as="alternateBounds" />
          </mxGeometry>
        </mxCell>
        <mxCell id="aEAsptuv42Pw4wkuXZzJ-26" value="" style="shape=tableRow;horizontal=0;startSize=0;swimlaneHead=0;swimlaneBody=0;top=0;left=0;bottom=0;right=0;collapsible=0;dropTarget=0;fillColor=none;points=[[0,0.5],[1,0.5]];portConstraint=eastwest;strokeColor=inherit;fontSize=16;" vertex="1" parent="aEAsptuv42Pw4wkuXZzJ-19">
          <mxGeometry y="90" width="180" height="30" as="geometry" />
        </mxCell>
        <mxCell id="aEAsptuv42Pw4wkuXZzJ-27" value="FK" style="shape=partialRectangle;html=1;whiteSpace=wrap;connectable=0;fillColor=none;top=0;left=0;bottom=0;right=0;overflow=hidden;strokeColor=inherit;fontSize=16;" vertex="1" parent="aEAsptuv42Pw4wkuXZzJ-26">
          <mxGeometry width="40" height="30" as="geometry">
            <mxRectangle width="40" height="30" as="alternateBounds" />
          </mxGeometry>
        </mxCell>
        <mxCell id="aEAsptuv42Pw4wkuXZzJ-28" value="IdNV" style="shape=partialRectangle;html=1;whiteSpace=wrap;connectable=0;fillColor=none;top=0;left=0;bottom=0;right=0;align=left;spacingLeft=6;overflow=hidden;strokeColor=inherit;fontSize=16;" vertex="1" parent="aEAsptuv42Pw4wkuXZzJ-26">
          <mxGeometry x="40" width="140" height="30" as="geometry">
            <mxRectangle width="140" height="30" as="alternateBounds" />
          </mxGeometry>
        </mxCell>
        <mxCell id="aEAsptuv42Pw4wkuXZzJ-29" value="" style="endArrow=none;html=1;rounded=0;entryX=0.5;entryY=1;entryDx=0;entryDy=0;exitX=0.5;exitY=0;exitDx=0;exitDy=0;" edge="1" parent="1" source="aEAsptuv42Pw4wkuXZzJ-19" target="hL4TjKniRrkw36ojrrID-49">
          <mxGeometry width="50" height="50" relative="1" as="geometry">
            <mxPoint x="400" y="1710" as="sourcePoint" />
            <mxPoint x="450" y="1660" as="targetPoint" />
          </mxGeometry>
        </mxCell>
        <mxCell id="aEAsptuv42Pw4wkuXZzJ-30" value="" style="endArrow=none;html=1;rounded=0;entryX=0.481;entryY=1.029;entryDx=0;entryDy=0;entryPerimeter=0;exitX=0.5;exitY=0;exitDx=0;exitDy=0;" edge="1" parent="1" source="aEAsptuv42Pw4wkuXZzJ-9" target="aEAsptuv42Pw4wkuXZzJ-26">
          <mxGeometry width="50" height="50" relative="1" as="geometry">
            <mxPoint x="390" y="1930" as="sourcePoint" />
            <mxPoint x="440" y="1880" as="targetPoint" />
          </mxGeometry>
        </mxCell>
      </root>
    </mxGraphModel>
  </diagram>
</mxfile>
